G75*
G70*
%OFA0B0*%
%FSLAX24Y24*%
%IPPOS*%
%LPD*%
%AMOC8*
5,1,8,0,0,1.08239X$1,22.5*
%
%ADD10C,0.0520*%
%ADD11OC8,0.0520*%
%ADD12C,0.0660*%
%ADD13OC8,0.0850*%
%ADD14C,0.0600*%
%ADD15C,0.0440*%
%ADD16C,0.0320*%
%ADD17C,0.0240*%
%ADD18OC8,0.0700*%
%ADD19C,0.0357*%
%ADD20C,0.2000*%
D10*
X016802Y007593D02*
X016802Y008113D01*
X017802Y008113D02*
X017802Y007593D01*
X018802Y007593D02*
X018802Y008113D01*
X019802Y008113D02*
X019802Y007593D01*
X020802Y007593D02*
X020802Y008113D01*
X021802Y008113D02*
X021802Y007593D01*
X022802Y007593D02*
X022802Y008113D01*
X023802Y008113D02*
X023802Y007593D01*
X024802Y007593D02*
X024802Y008113D01*
X025802Y008113D02*
X025802Y007593D01*
X026802Y007593D02*
X026802Y008113D01*
X027802Y008113D02*
X027802Y007593D01*
X027802Y013593D02*
X027802Y014113D01*
X026802Y014113D02*
X026802Y013593D01*
X025802Y013593D02*
X025802Y014113D01*
X024802Y014113D02*
X024802Y013593D01*
X023802Y013593D02*
X023802Y014113D01*
X022802Y014113D02*
X022802Y013593D01*
X021802Y013593D02*
X021802Y014113D01*
X020802Y014113D02*
X020802Y013593D01*
X019802Y013593D02*
X019802Y014113D01*
X018802Y014113D02*
X018802Y013593D01*
X017802Y013593D02*
X017802Y014113D01*
X016802Y014113D02*
X016802Y013593D01*
X013562Y011853D02*
X013042Y011853D01*
X013042Y010853D02*
X013562Y010853D01*
X013562Y009853D02*
X013042Y009853D01*
X009562Y009853D02*
X009042Y009853D01*
X009042Y010853D02*
X009562Y010853D01*
X009562Y011853D02*
X009042Y011853D01*
X006562Y011853D02*
X006042Y011853D01*
X006042Y010853D02*
X006562Y010853D01*
X006562Y009853D02*
X006042Y009853D01*
D11*
X011302Y008853D03*
X015302Y008853D03*
X012802Y006353D03*
X017802Y006353D03*
X019802Y006353D03*
X024802Y006353D03*
X030302Y009353D03*
X030302Y010353D03*
X030302Y011353D03*
X030302Y012353D03*
X034302Y012353D03*
X034302Y011353D03*
X034302Y010353D03*
X034302Y009353D03*
X015302Y012853D03*
X015302Y013853D03*
X014302Y013853D03*
X012302Y013853D03*
X011302Y013853D03*
X011302Y012853D03*
X011302Y016353D03*
X015302Y016353D03*
D12*
X016776Y016355D03*
X017776Y016355D03*
X018776Y016355D03*
X019776Y016355D03*
X020776Y016355D03*
X021776Y016355D03*
X022776Y016355D03*
X023776Y016355D03*
X024776Y016355D03*
X025776Y016355D03*
X026776Y016355D03*
X027776Y016355D03*
X028776Y016355D03*
X029776Y016355D03*
X030776Y016355D03*
X031776Y016355D03*
D13*
X007802Y007353D03*
X007802Y004353D03*
D14*
X010802Y004053D02*
X010802Y004653D01*
X011802Y004653D02*
X011802Y004053D01*
X012802Y004053D02*
X012802Y004653D01*
X013802Y004653D02*
X013802Y004053D01*
X014802Y004053D02*
X014802Y004653D01*
X015802Y004653D02*
X015802Y004053D01*
X016802Y004053D02*
X016802Y004653D01*
X017802Y004653D02*
X017802Y004053D01*
X018802Y004053D02*
X018802Y004653D01*
X019802Y004653D02*
X019802Y004053D01*
X020802Y004053D02*
X020802Y004653D01*
X021802Y004653D02*
X021802Y004053D01*
X022802Y004053D02*
X022802Y004653D01*
X023802Y004653D02*
X023802Y004053D01*
X024802Y004053D02*
X024802Y004653D01*
X025802Y004653D02*
X025802Y004053D01*
X026802Y004053D02*
X026802Y004653D01*
X027802Y004653D02*
X027802Y004053D01*
D15*
X008802Y015353D03*
X007802Y016353D03*
X006802Y015353D03*
D16*
X006802Y014353D01*
X004802Y014353D01*
X004802Y007353D01*
X007802Y004353D01*
X010802Y004353D01*
X010802Y005353D01*
X012802Y005353D01*
X012802Y004353D01*
X012802Y002853D01*
X015802Y002853D01*
X017802Y002853D01*
X017802Y004353D01*
X017802Y005103D01*
X016052Y006853D01*
X016052Y008353D01*
X016552Y008853D01*
X024802Y008853D01*
X029802Y008853D01*
X030302Y009353D01*
X030302Y010353D01*
X030302Y011353D01*
X030302Y012353D01*
X030302Y015853D01*
X030776Y016326D01*
X030776Y016355D01*
X031802Y016353D02*
X031802Y016853D01*
X031802Y016353D02*
X032177Y016353D01*
X031802Y016353D02*
X031802Y015853D01*
X029802Y016353D02*
X029776Y016353D01*
X029776Y016355D01*
X028302Y017829D01*
X028302Y017853D01*
X008802Y017853D01*
X007802Y016853D01*
X007802Y016353D01*
X009302Y014353D02*
X011302Y016353D01*
X012302Y014853D02*
X012302Y013853D01*
X011302Y013853D02*
X011302Y012853D01*
X010052Y011853D02*
X009302Y011853D01*
X009302Y012228D01*
X009302Y011853D02*
X008490Y011853D01*
X007052Y011853D02*
X006302Y011853D01*
X006302Y012228D01*
X006302Y011853D02*
X005552Y011853D01*
X006302Y010853D02*
X006802Y010853D01*
X011302Y006353D01*
X012802Y006353D01*
X013802Y006853D02*
X013302Y007353D01*
X011302Y007353D01*
X009302Y009353D01*
X009302Y009853D01*
X009302Y010853D02*
X010052Y010853D01*
X011302Y009603D01*
X011302Y008853D01*
X013302Y009353D02*
X013302Y009853D01*
X013302Y009353D02*
X015302Y007353D01*
X015302Y006603D01*
X016802Y005103D01*
X016802Y004353D01*
X016802Y004103D01*
X015802Y004353D02*
X015802Y002853D01*
X014802Y003478D02*
X014802Y005228D01*
X013802Y004353D02*
X013802Y006853D01*
X016802Y007353D02*
X017802Y006353D01*
X018802Y006353D02*
X017802Y007353D01*
X017802Y007853D01*
X016802Y007853D02*
X016802Y007353D01*
X018802Y006353D02*
X019802Y006353D01*
X018802Y006353D02*
X018802Y004353D01*
X019802Y003603D02*
X019802Y005353D01*
X020802Y004353D02*
X020802Y007853D01*
X020802Y001853D01*
X029802Y001853D01*
X033302Y005353D01*
X033302Y008853D01*
X033802Y009353D01*
X034302Y009353D01*
X034302Y010353D02*
X033302Y010353D01*
X032802Y009853D01*
X032802Y005853D01*
X029302Y002353D01*
X021802Y002353D01*
X021802Y007853D01*
X021802Y004353D01*
X022802Y004353D02*
X022802Y007853D01*
X022802Y002853D01*
X028802Y002853D01*
X032302Y006353D01*
X032302Y010853D01*
X032802Y011353D01*
X034302Y011353D01*
X034302Y012353D02*
X032302Y012353D01*
X031802Y011853D01*
X031802Y006853D01*
X028302Y003353D01*
X023802Y003353D01*
X023802Y007853D01*
X023802Y004353D01*
X024802Y004353D02*
X024802Y005103D01*
X025802Y005353D02*
X025802Y004353D01*
X025802Y005353D02*
X024802Y006353D01*
X024802Y007853D01*
X024802Y008853D01*
X026802Y007853D02*
X026802Y007228D01*
X027802Y005103D02*
X027802Y004353D01*
X028302Y004353D01*
X015302Y008853D02*
X015302Y009603D01*
X014052Y010853D01*
X013302Y010853D01*
X013302Y011853D02*
X012615Y011853D01*
X013302Y011853D02*
X013302Y012228D01*
X013302Y011853D02*
X013990Y011853D01*
X014302Y012853D02*
X015302Y012853D01*
X014302Y012853D02*
X014302Y013853D01*
X015302Y013853D02*
X016802Y013853D01*
X017802Y013853D02*
X017802Y014853D01*
X012302Y014853D01*
X009302Y014353D02*
X006802Y014353D01*
X006302Y009853D02*
X007802Y008353D01*
X007802Y007353D01*
X011802Y004353D02*
X011802Y003603D01*
X024802Y013103D02*
X024802Y013853D01*
X023802Y013853D02*
X023802Y014353D01*
X024302Y014853D01*
X027802Y014853D01*
X028802Y015853D01*
X028802Y016353D01*
X028778Y016353D01*
X028776Y016355D01*
X027802Y016353D02*
X027776Y016353D01*
X027776Y016355D01*
X027802Y016853D02*
X027802Y015853D01*
X026802Y015853D02*
X026802Y016329D01*
X026776Y016355D01*
X026802Y015853D02*
X026302Y015353D01*
X023802Y015353D01*
X022802Y014353D01*
X022802Y013853D01*
X021802Y013853D02*
X021802Y016329D01*
X021776Y016355D01*
X020802Y016329D02*
X020776Y016355D01*
X020802Y016329D02*
X020802Y013853D01*
X019802Y013853D02*
X019802Y016329D01*
X019776Y016355D01*
X018802Y016329D02*
X018776Y016355D01*
X018802Y016329D02*
X018802Y013853D01*
X017802Y015478D02*
X016177Y015478D01*
X015302Y016353D01*
X016302Y016353D02*
X016802Y016353D01*
X016802Y016853D01*
X017776Y016355D02*
X017802Y016329D01*
X017802Y015478D01*
D17*
X000822Y019703D02*
X000822Y000873D01*
X037274Y000873D01*
X037274Y019703D01*
X000822Y019703D01*
X000822Y019675D02*
X037274Y019675D01*
X037274Y019436D02*
X000822Y019436D01*
X000822Y019198D02*
X037274Y019198D01*
X037274Y018959D02*
X000822Y018959D01*
X000822Y018721D02*
X037274Y018721D01*
X037274Y018482D02*
X000822Y018482D01*
X000822Y018244D02*
X008444Y018244D01*
X008502Y018302D02*
X008353Y018153D01*
X007502Y017302D01*
X007353Y017153D01*
X007272Y016958D01*
X007272Y016841D01*
X007082Y016651D01*
X007082Y016073D01*
X006504Y016073D01*
X006082Y015651D01*
X006082Y015055D01*
X006254Y014883D01*
X004697Y014883D01*
X004502Y014802D01*
X004353Y014653D01*
X004272Y014458D01*
X004272Y014247D01*
X004272Y007458D01*
X004272Y007247D01*
X004353Y007053D01*
X007007Y004398D01*
X007007Y004023D01*
X007473Y003558D01*
X008132Y003558D01*
X008397Y003823D01*
X010172Y003823D01*
X010234Y003673D01*
X010423Y003485D01*
X010669Y003383D01*
X010936Y003383D01*
X011182Y003485D01*
X011370Y003673D01*
X011394Y003730D01*
X011406Y003714D01*
X011464Y003656D01*
X011530Y003608D01*
X011603Y003571D01*
X011681Y003546D01*
X011761Y003533D01*
X011802Y003533D01*
X011802Y004352D01*
X011803Y004352D01*
X011803Y003533D01*
X011843Y003533D01*
X011924Y003546D01*
X012002Y003571D01*
X012075Y003608D01*
X012141Y003656D01*
X012199Y003714D01*
X012211Y003730D01*
X012234Y003673D01*
X012272Y003635D01*
X012272Y002958D01*
X012272Y002747D01*
X012353Y002553D01*
X012502Y002403D01*
X012697Y002323D01*
X015908Y002323D01*
X017697Y002323D01*
X017908Y002323D01*
X018103Y002403D01*
X018252Y002553D01*
X018332Y002747D01*
X018332Y003575D01*
X018423Y003485D01*
X018669Y003383D01*
X018936Y003383D01*
X019182Y003485D01*
X019370Y003673D01*
X019394Y003730D01*
X019406Y003714D01*
X019464Y003656D01*
X019530Y003608D01*
X019603Y003571D01*
X019681Y003546D01*
X019761Y003533D01*
X019802Y003533D01*
X019802Y004352D01*
X019803Y004352D01*
X019803Y003533D01*
X019843Y003533D01*
X019924Y003546D01*
X020002Y003571D01*
X020075Y003608D01*
X020141Y003656D01*
X020199Y003714D01*
X020211Y003730D01*
X020234Y003673D01*
X020272Y003635D01*
X020272Y001958D01*
X020272Y001747D01*
X020353Y001553D01*
X020502Y001403D01*
X020697Y001323D01*
X029697Y001323D01*
X029908Y001323D01*
X030103Y001403D01*
X033603Y004903D01*
X033752Y005053D01*
X033832Y005247D01*
X033832Y008633D01*
X033982Y008783D01*
X034041Y008723D01*
X034563Y008723D01*
X034932Y009092D01*
X034932Y009614D01*
X034693Y009853D01*
X034932Y010092D01*
X034932Y010614D01*
X034693Y010853D01*
X034932Y011092D01*
X034932Y011614D01*
X034693Y011853D01*
X034932Y012092D01*
X034932Y012614D01*
X034563Y012983D01*
X034041Y012983D01*
X033941Y012883D01*
X032197Y012883D01*
X032002Y012802D01*
X031853Y012653D01*
X031853Y012653D01*
X031353Y012153D01*
X031272Y011958D01*
X031272Y011747D01*
X031272Y007072D01*
X028322Y004122D01*
X028322Y004353D01*
X028322Y004694D01*
X028310Y004775D01*
X028284Y004852D01*
X028247Y004925D01*
X028199Y004991D01*
X028141Y005049D01*
X028075Y005097D01*
X028002Y005135D01*
X027924Y005160D01*
X027843Y005173D01*
X027803Y005173D01*
X027803Y004353D01*
X028322Y004353D01*
X027803Y004353D01*
X027803Y004353D01*
X027802Y004353D01*
X027802Y005173D01*
X027761Y005173D01*
X027681Y005160D01*
X027603Y005135D01*
X027530Y005097D01*
X027464Y005049D01*
X027406Y004991D01*
X027394Y004975D01*
X027370Y005032D01*
X027182Y005221D01*
X026936Y005323D01*
X026669Y005323D01*
X026423Y005221D01*
X026332Y005130D01*
X026332Y005458D01*
X026252Y005653D01*
X026103Y005802D01*
X025432Y006472D01*
X025432Y006614D01*
X025332Y006714D01*
X025332Y007172D01*
X025445Y007059D01*
X025677Y006963D01*
X025928Y006963D01*
X026159Y007059D01*
X026336Y007236D01*
X026385Y007354D01*
X026392Y007341D01*
X026436Y007280D01*
X026490Y007227D01*
X026551Y007182D01*
X026618Y007148D01*
X026690Y007125D01*
X026765Y007113D01*
X026802Y007113D01*
X026802Y007852D01*
X026803Y007852D01*
X026803Y007113D01*
X026840Y007113D01*
X026915Y007125D01*
X026987Y007148D01*
X027054Y007182D01*
X027115Y007227D01*
X027168Y007280D01*
X027213Y007341D01*
X027219Y007354D01*
X027268Y007236D01*
X027445Y007059D01*
X027677Y006963D01*
X027928Y006963D01*
X028159Y007059D01*
X028336Y007236D01*
X028432Y007467D01*
X028432Y008238D01*
X028397Y008323D01*
X029697Y008323D01*
X029908Y008323D01*
X030103Y008403D01*
X030422Y008723D01*
X030563Y008723D01*
X030932Y009092D01*
X030932Y009614D01*
X030832Y009714D01*
X030832Y009992D01*
X030932Y010092D01*
X030932Y010614D01*
X030832Y010714D01*
X030832Y010992D01*
X030932Y011092D01*
X030932Y011614D01*
X030832Y011714D01*
X030832Y011992D01*
X030932Y012092D01*
X030932Y012614D01*
X030832Y012714D01*
X030832Y015633D01*
X031101Y015633D01*
X031410Y015943D01*
X031417Y015936D01*
X031488Y015885D01*
X031565Y015845D01*
X031647Y015819D01*
X031732Y015805D01*
X031776Y015805D01*
X031819Y015805D01*
X031905Y015819D01*
X031987Y015845D01*
X032064Y015885D01*
X032134Y015936D01*
X032195Y015997D01*
X032246Y016067D01*
X032285Y016144D01*
X032312Y016226D01*
X032326Y016312D01*
X032326Y016355D01*
X031776Y016355D01*
X031776Y016355D01*
X032326Y016355D01*
X032326Y016398D01*
X032312Y016484D01*
X032285Y016566D01*
X032246Y016643D01*
X032195Y016713D01*
X032134Y016775D01*
X032064Y016825D01*
X031987Y016865D01*
X031905Y016892D01*
X031819Y016905D01*
X031776Y016905D01*
X031776Y016356D01*
X031776Y016356D01*
X031776Y016905D01*
X031732Y016905D01*
X031647Y016892D01*
X031565Y016865D01*
X031488Y016825D01*
X031417Y016775D01*
X031408Y016765D01*
X031101Y017073D01*
X030504Y017073D01*
X030380Y016949D01*
X030379Y016949D01*
X030302Y016871D01*
X030101Y017073D01*
X029808Y017073D01*
X028769Y018112D01*
X028752Y018153D01*
X028603Y018302D01*
X028408Y018383D01*
X028197Y018383D01*
X008697Y018383D01*
X008502Y018302D01*
X008205Y018005D02*
X000822Y018005D01*
X000822Y017766D02*
X007967Y017766D01*
X007728Y017528D02*
X000822Y017528D01*
X000822Y017289D02*
X007489Y017289D01*
X007502Y017302D02*
X007502Y017302D01*
X007311Y017051D02*
X000822Y017051D01*
X000822Y016812D02*
X007244Y016812D01*
X007082Y016574D02*
X000822Y016574D01*
X000822Y016335D02*
X007082Y016335D01*
X007082Y016097D02*
X000822Y016097D01*
X000822Y015858D02*
X006289Y015858D01*
X006082Y015620D02*
X000822Y015620D01*
X000822Y015381D02*
X006082Y015381D01*
X006082Y015142D02*
X000822Y015142D01*
X000822Y014904D02*
X006233Y014904D01*
X007350Y014883D02*
X007522Y015055D01*
X007522Y015633D01*
X008101Y015633D01*
X008522Y016055D01*
X008522Y016651D01*
X008436Y016737D01*
X009022Y017323D01*
X028059Y017323D01*
X028406Y016975D01*
X028380Y016949D01*
X028379Y016949D01*
X028182Y016752D01*
X028182Y016750D01*
X028170Y016739D01*
X028134Y016775D01*
X028064Y016825D01*
X027987Y016865D01*
X027905Y016892D01*
X027819Y016905D01*
X027776Y016905D01*
X027776Y016356D01*
X027776Y016356D01*
X027776Y016905D01*
X027732Y016905D01*
X027647Y016892D01*
X027565Y016865D01*
X027488Y016825D01*
X027417Y016775D01*
X027408Y016765D01*
X027101Y017073D01*
X026504Y017073D01*
X026380Y016949D01*
X026379Y016949D01*
X026302Y016871D01*
X026101Y017073D01*
X025504Y017073D01*
X025380Y016949D01*
X025379Y016949D01*
X025302Y016871D01*
X025101Y017073D01*
X024504Y017073D01*
X024380Y016949D01*
X024379Y016949D01*
X024302Y016871D01*
X024101Y017073D01*
X023504Y017073D01*
X023380Y016949D01*
X023379Y016949D01*
X023302Y016871D01*
X023101Y017073D01*
X022504Y017073D01*
X022380Y016949D01*
X022379Y016949D01*
X022302Y016871D01*
X022101Y017073D01*
X021504Y017073D01*
X021380Y016949D01*
X021379Y016949D01*
X021302Y016871D01*
X021101Y017073D01*
X020504Y017073D01*
X020380Y016949D01*
X020379Y016949D01*
X020302Y016871D01*
X020101Y017073D01*
X019504Y017073D01*
X019380Y016949D01*
X019379Y016949D01*
X019302Y016871D01*
X019101Y017073D01*
X018504Y017073D01*
X018380Y016949D01*
X018379Y016949D01*
X018302Y016871D01*
X018101Y017073D01*
X017504Y017073D01*
X017380Y016949D01*
X017379Y016949D01*
X017182Y016752D01*
X017182Y016750D01*
X017170Y016739D01*
X017134Y016775D01*
X017064Y016825D01*
X016987Y016865D01*
X016905Y016892D01*
X016819Y016905D01*
X016776Y016905D01*
X016776Y016356D01*
X016776Y016356D01*
X016776Y016905D01*
X016732Y016905D01*
X016647Y016892D01*
X016565Y016865D01*
X016488Y016825D01*
X016417Y016775D01*
X016356Y016713D01*
X016305Y016643D01*
X016266Y016566D01*
X016239Y016484D01*
X016226Y016398D01*
X016226Y016355D01*
X016226Y016312D01*
X016239Y016226D01*
X016266Y016144D01*
X016272Y016133D01*
X015932Y016472D01*
X015932Y016614D01*
X015563Y016983D01*
X015041Y016983D01*
X014672Y016614D01*
X014672Y016092D01*
X015041Y015723D01*
X015183Y015723D01*
X015523Y015383D01*
X012408Y015383D01*
X012197Y015383D01*
X012002Y015302D01*
X011853Y015153D01*
X011772Y014958D01*
X011772Y014274D01*
X011563Y014483D01*
X011041Y014483D01*
X010672Y014114D01*
X010672Y013592D01*
X010772Y013492D01*
X010772Y013214D01*
X010672Y013114D01*
X010672Y012592D01*
X011041Y012223D01*
X011563Y012223D01*
X011932Y012592D01*
X011932Y013114D01*
X011832Y013214D01*
X011832Y013432D01*
X012041Y013223D01*
X012563Y013223D01*
X012932Y013592D01*
X012932Y014114D01*
X012832Y014214D01*
X012832Y014323D01*
X013881Y014323D01*
X013672Y014114D01*
X013672Y013592D01*
X013772Y013492D01*
X013772Y012958D01*
X013772Y012747D01*
X013853Y012553D01*
X014002Y012403D01*
X014197Y012323D01*
X014941Y012323D01*
X015041Y012223D01*
X015563Y012223D01*
X015932Y012592D01*
X015932Y013114D01*
X015723Y013323D01*
X016232Y013323D01*
X016268Y013236D01*
X016445Y013059D01*
X016677Y012963D01*
X016928Y012963D01*
X017159Y013059D01*
X017302Y013202D01*
X017445Y013059D01*
X017677Y012963D01*
X017928Y012963D01*
X018159Y013059D01*
X018302Y013202D01*
X018445Y013059D01*
X018677Y012963D01*
X018928Y012963D01*
X019159Y013059D01*
X019302Y013202D01*
X019445Y013059D01*
X019677Y012963D01*
X019928Y012963D01*
X020159Y013059D01*
X020302Y013202D01*
X020445Y013059D01*
X020677Y012963D01*
X020928Y012963D01*
X021159Y013059D01*
X021302Y013202D01*
X021445Y013059D01*
X021677Y012963D01*
X021928Y012963D01*
X022159Y013059D01*
X022302Y013202D01*
X022445Y013059D01*
X022677Y012963D01*
X022928Y012963D01*
X023159Y013059D01*
X023302Y013202D01*
X023445Y013059D01*
X023677Y012963D01*
X023928Y012963D01*
X024159Y013059D01*
X024336Y013236D01*
X024385Y013354D01*
X024392Y013341D01*
X024436Y013280D01*
X024490Y013227D01*
X024551Y013182D01*
X024618Y013148D01*
X024690Y013125D01*
X024765Y013113D01*
X024802Y013113D01*
X024802Y013852D01*
X024803Y013852D01*
X024803Y013113D01*
X024840Y013113D01*
X024915Y013125D01*
X024987Y013148D01*
X025054Y013182D01*
X025115Y013227D01*
X025168Y013280D01*
X025213Y013341D01*
X025219Y013354D01*
X025268Y013236D01*
X025445Y013059D01*
X025677Y012963D01*
X025928Y012963D01*
X026159Y013059D01*
X026302Y013202D01*
X026445Y013059D01*
X026677Y012963D01*
X026928Y012963D01*
X027159Y013059D01*
X027302Y013202D01*
X027445Y013059D01*
X027677Y012963D01*
X027928Y012963D01*
X028159Y013059D01*
X028336Y013236D01*
X028432Y013467D01*
X028432Y014238D01*
X028336Y014470D01*
X028253Y014553D01*
X029103Y015403D01*
X029252Y015553D01*
X029332Y015747D01*
X029332Y015805D01*
X029504Y015633D01*
X029772Y015633D01*
X029772Y012714D01*
X029672Y012614D01*
X029672Y012092D01*
X029772Y011992D01*
X029772Y011714D01*
X029672Y011614D01*
X029672Y011092D01*
X029772Y010992D01*
X029772Y010714D01*
X029672Y010614D01*
X029672Y010092D01*
X029772Y009992D01*
X029772Y009714D01*
X029672Y009614D01*
X029672Y009472D01*
X029583Y009383D01*
X024908Y009383D01*
X016447Y009383D01*
X016252Y009302D01*
X016103Y009153D01*
X015932Y008982D01*
X015932Y009114D01*
X015832Y009214D01*
X015832Y009708D01*
X015752Y009903D01*
X015603Y010052D01*
X014353Y011302D01*
X014158Y011383D01*
X013947Y011383D01*
X013923Y011383D01*
X013919Y011387D01*
X013801Y011436D01*
X013814Y011442D01*
X013875Y011487D01*
X013928Y011540D01*
X013973Y011601D01*
X014007Y011668D01*
X014031Y011740D01*
X014042Y011815D01*
X014042Y011853D01*
X014042Y011891D01*
X014031Y011965D01*
X014007Y012037D01*
X013973Y012104D01*
X013928Y012165D01*
X013875Y012219D01*
X013814Y012263D01*
X013747Y012298D01*
X013675Y012321D01*
X013600Y012333D01*
X013303Y012333D01*
X013303Y011853D01*
X014042Y011853D01*
X013303Y011853D01*
X013303Y011853D01*
X013302Y011853D01*
X013302Y011853D01*
X012562Y011853D01*
X012562Y011891D01*
X012574Y011965D01*
X012598Y012037D01*
X012632Y012104D01*
X012676Y012165D01*
X012730Y012219D01*
X012791Y012263D01*
X012858Y012298D01*
X012930Y012321D01*
X013005Y012333D01*
X013302Y012333D01*
X013302Y011853D01*
X012562Y011853D01*
X012562Y011815D01*
X012574Y011740D01*
X012598Y011668D01*
X012632Y011601D01*
X012676Y011540D01*
X012730Y011487D01*
X012791Y011442D01*
X012804Y011436D01*
X012685Y011387D01*
X012508Y011210D01*
X012412Y010978D01*
X012412Y010727D01*
X012508Y010496D01*
X012651Y010353D01*
X012508Y010210D01*
X012412Y009978D01*
X012412Y009727D01*
X012508Y009496D01*
X012685Y009319D01*
X012772Y009283D01*
X012772Y009247D01*
X012853Y009053D01*
X013002Y008903D01*
X014772Y007133D01*
X014772Y006497D01*
X014853Y006303D01*
X015002Y006153D01*
X015833Y005323D01*
X015669Y005323D01*
X015423Y005221D01*
X015234Y005032D01*
X015211Y004975D01*
X015199Y004991D01*
X015141Y005049D01*
X015075Y005097D01*
X015002Y005135D01*
X014924Y005160D01*
X014843Y005173D01*
X014803Y005173D01*
X014803Y004353D01*
X014802Y004353D01*
X014802Y005173D01*
X014761Y005173D01*
X014681Y005160D01*
X014603Y005135D01*
X014530Y005097D01*
X014464Y005049D01*
X014406Y004991D01*
X014394Y004975D01*
X014370Y005032D01*
X014332Y005070D01*
X014332Y006747D01*
X014332Y006958D01*
X014252Y007153D01*
X013752Y007653D01*
X013603Y007802D01*
X013408Y007883D01*
X011522Y007883D01*
X011182Y008223D01*
X011563Y008223D01*
X011932Y008592D01*
X011932Y009114D01*
X011832Y009214D01*
X011832Y009708D01*
X011752Y009903D01*
X011603Y010052D01*
X010353Y011302D01*
X010158Y011383D01*
X009947Y011383D01*
X009923Y011383D01*
X009919Y011387D01*
X009801Y011436D01*
X009814Y011442D01*
X009875Y011487D01*
X009928Y011540D01*
X009973Y011601D01*
X010007Y011668D01*
X010031Y011740D01*
X010042Y011815D01*
X010042Y011853D01*
X010042Y011891D01*
X010031Y011965D01*
X010007Y012037D01*
X009973Y012104D01*
X009928Y012165D01*
X009875Y012219D01*
X009814Y012263D01*
X009747Y012298D01*
X009675Y012321D01*
X009600Y012333D01*
X009303Y012333D01*
X009303Y011853D01*
X010042Y011853D01*
X009303Y011853D01*
X009303Y011853D01*
X009302Y011853D01*
X009302Y011853D01*
X008562Y011853D01*
X008562Y011891D01*
X008574Y011965D01*
X008598Y012037D01*
X008632Y012104D01*
X008676Y012165D01*
X008730Y012219D01*
X008791Y012263D01*
X008858Y012298D01*
X008930Y012321D01*
X009005Y012333D01*
X009302Y012333D01*
X009302Y011853D01*
X008562Y011853D01*
X008562Y011815D01*
X008574Y011740D01*
X008598Y011668D01*
X008632Y011601D01*
X008676Y011540D01*
X008730Y011487D01*
X008791Y011442D01*
X008804Y011436D01*
X008685Y011387D01*
X008508Y011210D01*
X008412Y010978D01*
X008412Y010727D01*
X008508Y010496D01*
X008651Y010353D01*
X008508Y010210D01*
X008417Y009988D01*
X007252Y011153D01*
X007103Y011302D01*
X006934Y011372D01*
X006919Y011387D01*
X006801Y011436D01*
X006814Y011442D01*
X006875Y011487D01*
X006928Y011540D01*
X006973Y011601D01*
X007007Y011668D01*
X007031Y011740D01*
X007042Y011815D01*
X007042Y011853D01*
X007042Y011891D01*
X007031Y011965D01*
X007007Y012037D01*
X006973Y012104D01*
X006928Y012165D01*
X006875Y012219D01*
X006814Y012263D01*
X006747Y012298D01*
X006675Y012321D01*
X006600Y012333D01*
X006303Y012333D01*
X006303Y011853D01*
X007042Y011853D01*
X006303Y011853D01*
X006303Y011853D01*
X006302Y011853D01*
X006302Y011853D01*
X005562Y011853D01*
X005562Y011891D01*
X005574Y011965D01*
X005598Y012037D01*
X005632Y012104D01*
X005676Y012165D01*
X005730Y012219D01*
X005791Y012263D01*
X005858Y012298D01*
X005930Y012321D01*
X006005Y012333D01*
X006302Y012333D01*
X006302Y011853D01*
X005562Y011853D01*
X005562Y011815D01*
X005574Y011740D01*
X005598Y011668D01*
X005632Y011601D01*
X005676Y011540D01*
X005730Y011487D01*
X005791Y011442D01*
X005804Y011436D01*
X005685Y011387D01*
X005508Y011210D01*
X005412Y010978D01*
X005412Y010727D01*
X005508Y010496D01*
X005651Y010353D01*
X005508Y010210D01*
X005412Y009978D01*
X005412Y009727D01*
X005508Y009496D01*
X005685Y009319D01*
X005917Y009223D01*
X006183Y009223D01*
X007272Y008133D01*
X007272Y007947D01*
X007007Y007682D01*
X007007Y007023D01*
X007473Y006558D01*
X008132Y006558D01*
X008597Y007023D01*
X008597Y007682D01*
X008332Y007947D01*
X008332Y008458D01*
X008252Y008653D01*
X008103Y008802D01*
X007188Y009717D01*
X007188Y009717D01*
X011002Y005903D01*
X011052Y005883D01*
X010908Y005883D01*
X010697Y005883D01*
X010502Y005802D01*
X010353Y005653D01*
X010272Y005458D01*
X010272Y005070D01*
X010234Y005032D01*
X010172Y004883D01*
X008397Y004883D01*
X008132Y005148D01*
X007757Y005148D01*
X005332Y007572D01*
X005332Y013823D01*
X006697Y013823D01*
X006908Y013823D01*
X009408Y013823D01*
X009603Y013903D01*
X009752Y014053D01*
X011422Y015723D01*
X011563Y015723D01*
X011932Y016092D01*
X011932Y016614D01*
X011563Y016983D01*
X011041Y016983D01*
X010672Y016614D01*
X010672Y016472D01*
X009083Y014883D01*
X007350Y014883D01*
X007372Y014904D02*
X009104Y014904D01*
X009033Y014976D02*
X009089Y015017D01*
X009138Y015066D01*
X009179Y015122D01*
X009210Y015184D01*
X009231Y015250D01*
X009242Y015318D01*
X009242Y015353D01*
X009242Y015387D01*
X009231Y015456D01*
X009210Y015522D01*
X009179Y015583D01*
X009138Y015639D01*
X009089Y015688D01*
X009033Y015729D01*
X008971Y015760D01*
X008905Y015782D01*
X008837Y015793D01*
X008803Y015793D01*
X008803Y015353D01*
X009242Y015353D01*
X008803Y015353D01*
X008803Y015353D01*
X008802Y015353D01*
X008802Y015353D01*
X008362Y015353D01*
X008362Y015387D01*
X008373Y015456D01*
X008395Y015522D01*
X008426Y015583D01*
X008467Y015639D01*
X008516Y015688D01*
X008572Y015729D01*
X008633Y015760D01*
X008699Y015782D01*
X008768Y015793D01*
X008802Y015793D01*
X008802Y015353D01*
X008362Y015353D01*
X008362Y015318D01*
X008373Y015250D01*
X008395Y015184D01*
X008426Y015122D01*
X008467Y015066D01*
X008516Y015017D01*
X008572Y014976D01*
X008633Y014945D01*
X008699Y014924D01*
X008768Y014913D01*
X008802Y014913D01*
X008802Y015352D01*
X008803Y015352D01*
X008803Y014913D01*
X008837Y014913D01*
X008905Y014924D01*
X008971Y014945D01*
X009033Y014976D01*
X009189Y015142D02*
X009343Y015142D01*
X009242Y015381D02*
X009581Y015381D01*
X009820Y015620D02*
X009152Y015620D01*
X008803Y015620D02*
X008802Y015620D01*
X008802Y015381D02*
X008803Y015381D01*
X008802Y015142D02*
X008803Y015142D01*
X008416Y015142D02*
X007522Y015142D01*
X007522Y015381D02*
X008362Y015381D01*
X008452Y015620D02*
X007522Y015620D01*
X008326Y015858D02*
X010058Y015858D01*
X010297Y016097D02*
X008522Y016097D01*
X008522Y016335D02*
X010535Y016335D01*
X010672Y016574D02*
X008522Y016574D01*
X008511Y016812D02*
X010871Y016812D01*
X011734Y016812D02*
X014871Y016812D01*
X014672Y016574D02*
X011932Y016574D01*
X011932Y016335D02*
X014672Y016335D01*
X014672Y016097D02*
X011932Y016097D01*
X011699Y015858D02*
X014906Y015858D01*
X015286Y015620D02*
X011319Y015620D01*
X011080Y015381D02*
X012193Y015381D01*
X011849Y015142D02*
X010842Y015142D01*
X010603Y014904D02*
X011772Y014904D01*
X011772Y014665D02*
X010364Y014665D01*
X010126Y014427D02*
X010986Y014427D01*
X010747Y014188D02*
X009887Y014188D01*
X009649Y013950D02*
X010672Y013950D01*
X010672Y013711D02*
X005332Y013711D01*
X005332Y013473D02*
X010772Y013473D01*
X010772Y013234D02*
X005332Y013234D01*
X005332Y012996D02*
X010672Y012996D01*
X010672Y012757D02*
X005332Y012757D01*
X005332Y012518D02*
X010746Y012518D01*
X010984Y012280D02*
X009781Y012280D01*
X010005Y012041D02*
X012600Y012041D01*
X012564Y011803D02*
X010040Y011803D01*
X009946Y011564D02*
X012659Y011564D01*
X012624Y011326D02*
X010295Y011326D01*
X010567Y011087D02*
X012458Y011087D01*
X012412Y010849D02*
X010806Y010849D01*
X011044Y010610D02*
X012461Y010610D01*
X012633Y010372D02*
X011283Y010372D01*
X011522Y010133D02*
X012477Y010133D01*
X012412Y009894D02*
X011755Y009894D01*
X011832Y009656D02*
X012442Y009656D01*
X012587Y009417D02*
X011832Y009417D01*
X011867Y009179D02*
X012801Y009179D01*
X012965Y008940D02*
X011932Y008940D01*
X011932Y008702D02*
X013204Y008702D01*
X013442Y008463D02*
X011804Y008463D01*
X011565Y008225D02*
X013681Y008225D01*
X013919Y007986D02*
X011418Y007986D01*
X009874Y007032D02*
X008597Y007032D01*
X008597Y007271D02*
X009635Y007271D01*
X009396Y007509D02*
X008597Y007509D01*
X008532Y007748D02*
X009158Y007748D01*
X008919Y007986D02*
X008332Y007986D01*
X008332Y008225D02*
X008681Y008225D01*
X008442Y008463D02*
X008330Y008463D01*
X008203Y008702D02*
X008204Y008702D01*
X007965Y008940D02*
X007964Y008940D01*
X007727Y009179D02*
X007726Y009179D01*
X007488Y009417D02*
X007487Y009417D01*
X007250Y009656D02*
X007249Y009656D01*
X008272Y010133D02*
X008477Y010133D01*
X008633Y010372D02*
X008033Y010372D01*
X007794Y010610D02*
X008461Y010610D01*
X008412Y010849D02*
X007556Y010849D01*
X007317Y011087D02*
X008458Y011087D01*
X008624Y011326D02*
X007045Y011326D01*
X006946Y011564D02*
X008659Y011564D01*
X008564Y011803D02*
X007040Y011803D01*
X007005Y012041D02*
X008600Y012041D01*
X008823Y012280D02*
X006781Y012280D01*
X006303Y012280D02*
X006302Y012280D01*
X006302Y012041D02*
X006303Y012041D01*
X005823Y012280D02*
X005332Y012280D01*
X005332Y012041D02*
X005600Y012041D01*
X005564Y011803D02*
X005332Y011803D01*
X005332Y011564D02*
X005659Y011564D01*
X005624Y011326D02*
X005332Y011326D01*
X005332Y011087D02*
X005458Y011087D01*
X005412Y010849D02*
X005332Y010849D01*
X005332Y010610D02*
X005461Y010610D01*
X005332Y010372D02*
X005633Y010372D01*
X005477Y010133D02*
X005332Y010133D01*
X005332Y009894D02*
X005412Y009894D01*
X005442Y009656D02*
X005332Y009656D01*
X005332Y009417D02*
X005587Y009417D01*
X005332Y009179D02*
X006227Y009179D01*
X006465Y008940D02*
X005332Y008940D01*
X005332Y008702D02*
X006704Y008702D01*
X006942Y008463D02*
X005332Y008463D01*
X005332Y008225D02*
X007181Y008225D01*
X007272Y007986D02*
X005332Y007986D01*
X005332Y007748D02*
X007073Y007748D01*
X007007Y007509D02*
X005396Y007509D01*
X005634Y007271D02*
X007007Y007271D01*
X007007Y007032D02*
X005873Y007032D01*
X006111Y006793D02*
X007237Y006793D01*
X006588Y006316D02*
X010589Y006316D01*
X010351Y006555D02*
X006350Y006555D01*
X006827Y006078D02*
X010828Y006078D01*
X010592Y005839D02*
X007065Y005839D01*
X007304Y005601D02*
X010331Y005601D01*
X010272Y005362D02*
X007542Y005362D01*
X008156Y005124D02*
X010272Y005124D01*
X010173Y004885D02*
X008394Y004885D01*
X006998Y004408D02*
X000822Y004408D01*
X000822Y004169D02*
X007007Y004169D01*
X007100Y003931D02*
X000822Y003931D01*
X000822Y003692D02*
X007338Y003692D01*
X008266Y003692D02*
X010226Y003692D01*
X010498Y003454D02*
X000822Y003454D01*
X000822Y003215D02*
X012272Y003215D01*
X012272Y002977D02*
X000822Y002977D01*
X000822Y002738D02*
X012276Y002738D01*
X012406Y002500D02*
X000822Y002500D01*
X000822Y002261D02*
X020272Y002261D01*
X020272Y002500D02*
X018199Y002500D01*
X018329Y002738D02*
X020272Y002738D01*
X020272Y002977D02*
X018332Y002977D01*
X018332Y003215D02*
X020272Y003215D01*
X020272Y003454D02*
X019107Y003454D01*
X019378Y003692D02*
X019427Y003692D01*
X019802Y003692D02*
X019803Y003692D01*
X019802Y003931D02*
X019803Y003931D01*
X019802Y004169D02*
X019803Y004169D01*
X019802Y004353D02*
X019802Y005173D01*
X019761Y005173D01*
X019681Y005160D01*
X019603Y005135D01*
X019530Y005097D01*
X019464Y005049D01*
X019406Y004991D01*
X019394Y004975D01*
X019370Y005032D01*
X019332Y005070D01*
X019332Y005823D01*
X019441Y005823D01*
X019541Y005723D01*
X020063Y005723D01*
X020272Y005932D01*
X020272Y005070D01*
X020234Y005032D01*
X020211Y004975D01*
X020199Y004991D01*
X020141Y005049D01*
X020075Y005097D01*
X020002Y005135D01*
X019924Y005160D01*
X019843Y005173D01*
X019803Y005173D01*
X019803Y004353D01*
X019802Y004353D01*
X019802Y004408D02*
X019803Y004408D01*
X019802Y004647D02*
X019803Y004647D01*
X019802Y004885D02*
X019803Y004885D01*
X019802Y005124D02*
X019803Y005124D01*
X020024Y005124D02*
X020272Y005124D01*
X020272Y005362D02*
X019332Y005362D01*
X019332Y005124D02*
X019581Y005124D01*
X019332Y005601D02*
X020272Y005601D01*
X020272Y005839D02*
X020180Y005839D01*
X020177Y003692D02*
X020226Y003692D01*
X018498Y003454D02*
X018332Y003454D01*
X020272Y002023D02*
X000822Y002023D01*
X000822Y001784D02*
X020272Y001784D01*
X020360Y001545D02*
X000822Y001545D01*
X000822Y001307D02*
X037274Y001307D01*
X037274Y001545D02*
X030245Y001545D01*
X030483Y001784D02*
X037274Y001784D01*
X037274Y002023D02*
X030722Y002023D01*
X030960Y002261D02*
X037274Y002261D01*
X037274Y002500D02*
X031199Y002500D01*
X031437Y002738D02*
X037274Y002738D01*
X037274Y002977D02*
X031676Y002977D01*
X031914Y003215D02*
X037274Y003215D01*
X037274Y003454D02*
X032153Y003454D01*
X032391Y003692D02*
X037274Y003692D01*
X037274Y003931D02*
X032630Y003931D01*
X032869Y004169D02*
X037274Y004169D01*
X037274Y004408D02*
X033107Y004408D01*
X033346Y004647D02*
X037274Y004647D01*
X037274Y004885D02*
X033584Y004885D01*
X033781Y005124D02*
X037274Y005124D01*
X037274Y005362D02*
X033832Y005362D01*
X033832Y005601D02*
X037274Y005601D01*
X037274Y005839D02*
X033832Y005839D01*
X033832Y006078D02*
X037274Y006078D01*
X037274Y006316D02*
X033832Y006316D01*
X033832Y006555D02*
X037274Y006555D01*
X037274Y006793D02*
X033832Y006793D01*
X033832Y007032D02*
X037274Y007032D01*
X037274Y007271D02*
X033832Y007271D01*
X033832Y007509D02*
X037274Y007509D01*
X037274Y007748D02*
X033832Y007748D01*
X033832Y007986D02*
X037274Y007986D01*
X037274Y008225D02*
X033832Y008225D01*
X033832Y008463D02*
X037274Y008463D01*
X037274Y008702D02*
X033901Y008702D01*
X034781Y008940D02*
X037274Y008940D01*
X037274Y009179D02*
X034932Y009179D01*
X034932Y009417D02*
X037274Y009417D01*
X037274Y009656D02*
X034890Y009656D01*
X034735Y009894D02*
X037274Y009894D01*
X037274Y010133D02*
X034932Y010133D01*
X034932Y010372D02*
X037274Y010372D01*
X037274Y010610D02*
X034932Y010610D01*
X034697Y010849D02*
X037274Y010849D01*
X037274Y011087D02*
X034928Y011087D01*
X034932Y011326D02*
X037274Y011326D01*
X037274Y011564D02*
X034932Y011564D01*
X034743Y011803D02*
X037274Y011803D01*
X037274Y012041D02*
X034882Y012041D01*
X034932Y012280D02*
X037274Y012280D01*
X037274Y012518D02*
X034932Y012518D01*
X034789Y012757D02*
X037274Y012757D01*
X037274Y012996D02*
X030832Y012996D01*
X030832Y012757D02*
X031957Y012757D01*
X031719Y012518D02*
X030932Y012518D01*
X030932Y012280D02*
X031480Y012280D01*
X031307Y012041D02*
X030882Y012041D01*
X030832Y011803D02*
X031272Y011803D01*
X031272Y011564D02*
X030932Y011564D01*
X030932Y011326D02*
X031272Y011326D01*
X031272Y011087D02*
X030928Y011087D01*
X030832Y010849D02*
X031272Y010849D01*
X031272Y010610D02*
X030932Y010610D01*
X030932Y010372D02*
X031272Y010372D01*
X031272Y010133D02*
X030932Y010133D01*
X030832Y009894D02*
X031272Y009894D01*
X031272Y009656D02*
X030890Y009656D01*
X030932Y009417D02*
X031272Y009417D01*
X031272Y009179D02*
X030932Y009179D01*
X030781Y008940D02*
X031272Y008940D01*
X031272Y008702D02*
X030401Y008702D01*
X030162Y008463D02*
X031272Y008463D01*
X031272Y008225D02*
X028432Y008225D01*
X028432Y007986D02*
X031272Y007986D01*
X031272Y007748D02*
X028432Y007748D01*
X028432Y007509D02*
X031272Y007509D01*
X031272Y007271D02*
X028351Y007271D01*
X028095Y007032D02*
X031232Y007032D01*
X030994Y006793D02*
X025332Y006793D01*
X025332Y007032D02*
X025510Y007032D01*
X026095Y007032D02*
X027510Y007032D01*
X027254Y007271D02*
X027159Y007271D01*
X026803Y007271D02*
X026802Y007271D01*
X026802Y007509D02*
X026803Y007509D01*
X026446Y007271D02*
X026351Y007271D01*
X026802Y007748D02*
X026803Y007748D01*
X025432Y006555D02*
X030755Y006555D01*
X030516Y006316D02*
X025588Y006316D01*
X025827Y006078D02*
X030278Y006078D01*
X030039Y005839D02*
X026065Y005839D01*
X026273Y005601D02*
X029801Y005601D01*
X029562Y005362D02*
X026332Y005362D01*
X027279Y005124D02*
X027581Y005124D01*
X027802Y005124D02*
X027803Y005124D01*
X028024Y005124D02*
X029324Y005124D01*
X029085Y004885D02*
X028268Y004885D01*
X027803Y004885D02*
X027802Y004885D01*
X027802Y004647D02*
X027803Y004647D01*
X027802Y004408D02*
X027803Y004408D01*
X028322Y004408D02*
X028608Y004408D01*
X028370Y004169D02*
X028322Y004169D01*
X028322Y004647D02*
X028847Y004647D01*
X025272Y005070D02*
X025234Y005032D01*
X025211Y004975D01*
X025199Y004991D01*
X025141Y005049D01*
X025075Y005097D01*
X025002Y005135D01*
X024924Y005160D01*
X024843Y005173D01*
X024803Y005173D01*
X024803Y004353D01*
X024802Y004353D01*
X024802Y005173D01*
X024761Y005173D01*
X024681Y005160D01*
X024603Y005135D01*
X024530Y005097D01*
X024464Y005049D01*
X024406Y004991D01*
X024394Y004975D01*
X024370Y005032D01*
X024332Y005070D01*
X024332Y005932D01*
X024541Y005723D01*
X024683Y005723D01*
X025272Y005133D01*
X025272Y005070D01*
X025272Y005124D02*
X025024Y005124D01*
X024803Y005124D02*
X024802Y005124D01*
X024581Y005124D02*
X024332Y005124D01*
X024332Y005362D02*
X025043Y005362D01*
X024805Y005601D02*
X024332Y005601D01*
X024332Y005839D02*
X024425Y005839D01*
X024802Y004885D02*
X024803Y004885D01*
X024802Y004647D02*
X024803Y004647D01*
X024802Y004408D02*
X024803Y004408D01*
X015793Y005362D02*
X014332Y005362D01*
X014332Y005124D02*
X014581Y005124D01*
X014802Y005124D02*
X014803Y005124D01*
X015024Y005124D02*
X015326Y005124D01*
X014802Y004885D02*
X014803Y004885D01*
X014802Y004647D02*
X014803Y004647D01*
X014802Y004408D02*
X014803Y004408D01*
X014803Y004352D02*
X014803Y003533D01*
X014843Y003533D01*
X014924Y003546D01*
X015002Y003571D01*
X015075Y003608D01*
X015141Y003656D01*
X015199Y003714D01*
X015211Y003730D01*
X015234Y003673D01*
X015272Y003635D01*
X015272Y003383D01*
X013332Y003383D01*
X013332Y003575D01*
X013423Y003485D01*
X013669Y003383D01*
X013936Y003383D01*
X014182Y003485D01*
X014370Y003673D01*
X014394Y003730D01*
X014406Y003714D01*
X014464Y003656D01*
X014530Y003608D01*
X014603Y003571D01*
X014681Y003546D01*
X014761Y003533D01*
X014802Y003533D01*
X014802Y004352D01*
X014803Y004352D01*
X014802Y004169D02*
X014803Y004169D01*
X014802Y003931D02*
X014803Y003931D01*
X014802Y003692D02*
X014803Y003692D01*
X015177Y003692D02*
X015226Y003692D01*
X015272Y003454D02*
X014107Y003454D01*
X014378Y003692D02*
X014427Y003692D01*
X013498Y003454D02*
X013332Y003454D01*
X012272Y003454D02*
X011107Y003454D01*
X011378Y003692D02*
X011427Y003692D01*
X011802Y003692D02*
X011803Y003692D01*
X011802Y003931D02*
X011803Y003931D01*
X011802Y004169D02*
X011803Y004169D01*
X012177Y003692D02*
X012226Y003692D01*
X014332Y005601D02*
X015555Y005601D01*
X015316Y005839D02*
X014332Y005839D01*
X014332Y006078D02*
X015078Y006078D01*
X014847Y006316D02*
X014332Y006316D01*
X014332Y006555D02*
X014772Y006555D01*
X014772Y006793D02*
X014332Y006793D01*
X014302Y007032D02*
X014772Y007032D01*
X014635Y007271D02*
X014134Y007271D01*
X013896Y007509D02*
X014396Y007509D01*
X014158Y007748D02*
X013657Y007748D01*
X015867Y009179D02*
X016129Y009179D01*
X015832Y009417D02*
X029617Y009417D01*
X029715Y009656D02*
X015832Y009656D01*
X015755Y009894D02*
X029772Y009894D01*
X029672Y010133D02*
X015522Y010133D01*
X015283Y010372D02*
X029672Y010372D01*
X029672Y010610D02*
X015044Y010610D01*
X014806Y010849D02*
X029772Y010849D01*
X029677Y011087D02*
X014567Y011087D01*
X014295Y011326D02*
X029672Y011326D01*
X029672Y011564D02*
X013946Y011564D01*
X014040Y011803D02*
X029772Y011803D01*
X029723Y012041D02*
X014005Y012041D01*
X013781Y012280D02*
X014984Y012280D01*
X015620Y012280D02*
X029672Y012280D01*
X029672Y012518D02*
X015859Y012518D01*
X015932Y012757D02*
X029772Y012757D01*
X029772Y012996D02*
X028007Y012996D01*
X027598Y012996D02*
X027007Y012996D01*
X026598Y012996D02*
X026007Y012996D01*
X025598Y012996D02*
X024007Y012996D01*
X023598Y012996D02*
X023007Y012996D01*
X022598Y012996D02*
X022007Y012996D01*
X021598Y012996D02*
X021007Y012996D01*
X020598Y012996D02*
X020007Y012996D01*
X019598Y012996D02*
X019007Y012996D01*
X018598Y012996D02*
X018007Y012996D01*
X017598Y012996D02*
X017007Y012996D01*
X016598Y012996D02*
X015932Y012996D01*
X015812Y013234D02*
X016270Y013234D01*
X013887Y012518D02*
X011859Y012518D01*
X011932Y012757D02*
X013772Y012757D01*
X013772Y012996D02*
X011932Y012996D01*
X012030Y013234D02*
X011832Y013234D01*
X012575Y013234D02*
X013772Y013234D01*
X013772Y013473D02*
X012813Y013473D01*
X012932Y013711D02*
X013672Y013711D01*
X013672Y013950D02*
X012932Y013950D01*
X012858Y014188D02*
X013747Y014188D01*
X011772Y014427D02*
X011619Y014427D01*
X011620Y012280D02*
X012823Y012280D01*
X013302Y012280D02*
X013303Y012280D01*
X013302Y012041D02*
X013303Y012041D01*
X009303Y012041D02*
X009302Y012041D01*
X009302Y012280D02*
X009303Y012280D01*
X004272Y012280D02*
X000822Y012280D01*
X000822Y012518D02*
X004272Y012518D01*
X004272Y012757D02*
X000822Y012757D01*
X000822Y012996D02*
X004272Y012996D01*
X004272Y013234D02*
X000822Y013234D01*
X000822Y013473D02*
X004272Y013473D01*
X004272Y013711D02*
X000822Y013711D01*
X000822Y013950D02*
X004272Y013950D01*
X004272Y014188D02*
X000822Y014188D01*
X000822Y014427D02*
X004272Y014427D01*
X004365Y014665D02*
X000822Y014665D01*
X000822Y012041D02*
X004272Y012041D01*
X004272Y011803D02*
X000822Y011803D01*
X000822Y011564D02*
X004272Y011564D01*
X004272Y011326D02*
X000822Y011326D01*
X000822Y011087D02*
X004272Y011087D01*
X004272Y010849D02*
X000822Y010849D01*
X000822Y010610D02*
X004272Y010610D01*
X004272Y010372D02*
X000822Y010372D01*
X000822Y010133D02*
X004272Y010133D01*
X004272Y009894D02*
X000822Y009894D01*
X000822Y009656D02*
X004272Y009656D01*
X004272Y009417D02*
X000822Y009417D01*
X000822Y009179D02*
X004272Y009179D01*
X004272Y008940D02*
X000822Y008940D01*
X000822Y008702D02*
X004272Y008702D01*
X004272Y008463D02*
X000822Y008463D01*
X000822Y008225D02*
X004272Y008225D01*
X004272Y007986D02*
X000822Y007986D01*
X000822Y007748D02*
X004272Y007748D01*
X004272Y007509D02*
X000822Y007509D01*
X000822Y007271D02*
X004272Y007271D01*
X004374Y007032D02*
X000822Y007032D01*
X000822Y006793D02*
X004612Y006793D01*
X004851Y006555D02*
X000822Y006555D01*
X000822Y006316D02*
X005089Y006316D01*
X005328Y006078D02*
X000822Y006078D01*
X000822Y005839D02*
X005566Y005839D01*
X005805Y005601D02*
X000822Y005601D01*
X000822Y005362D02*
X006043Y005362D01*
X006282Y005124D02*
X000822Y005124D01*
X000822Y004885D02*
X006520Y004885D01*
X006759Y004647D02*
X000822Y004647D01*
X000822Y001068D02*
X037274Y001068D01*
X037274Y013234D02*
X030832Y013234D01*
X030832Y013473D02*
X037274Y013473D01*
X037274Y013711D02*
X030832Y013711D01*
X030832Y013950D02*
X037274Y013950D01*
X037274Y014188D02*
X030832Y014188D01*
X030832Y014427D02*
X037274Y014427D01*
X037274Y014665D02*
X030832Y014665D01*
X030832Y014904D02*
X037274Y014904D01*
X037274Y015142D02*
X030832Y015142D01*
X030832Y015381D02*
X037274Y015381D01*
X037274Y015620D02*
X030832Y015620D01*
X031326Y015858D02*
X031540Y015858D01*
X031776Y015858D02*
X031776Y015858D01*
X031776Y015805D02*
X031776Y016355D01*
X031776Y016355D01*
X031776Y015805D01*
X032012Y015858D02*
X037274Y015858D01*
X037274Y016097D02*
X032261Y016097D01*
X032326Y016335D02*
X037274Y016335D01*
X037274Y016574D02*
X032282Y016574D01*
X032082Y016812D02*
X037274Y016812D01*
X037274Y017051D02*
X031122Y017051D01*
X031361Y016812D02*
X031469Y016812D01*
X031776Y016812D02*
X031776Y016812D01*
X031776Y016574D02*
X031776Y016574D01*
X031776Y016335D02*
X031776Y016335D01*
X031776Y016097D02*
X031776Y016097D01*
X030802Y016353D02*
X030778Y016353D01*
X030776Y016355D01*
X030482Y017051D02*
X030122Y017051D01*
X029591Y017289D02*
X037274Y017289D01*
X037274Y017528D02*
X029353Y017528D01*
X029114Y017766D02*
X037274Y017766D01*
X037274Y018005D02*
X028875Y018005D01*
X028661Y018244D02*
X037274Y018244D01*
X029772Y015620D02*
X029279Y015620D01*
X029080Y015381D02*
X029772Y015381D01*
X029772Y015142D02*
X028842Y015142D01*
X028603Y014904D02*
X029772Y014904D01*
X029772Y014665D02*
X028364Y014665D01*
X028354Y014427D02*
X029772Y014427D01*
X029772Y014188D02*
X028432Y014188D01*
X028432Y013950D02*
X029772Y013950D01*
X029772Y013711D02*
X028432Y013711D01*
X028432Y013473D02*
X029772Y013473D01*
X029772Y013234D02*
X028335Y013234D01*
X025270Y013234D02*
X025123Y013234D01*
X024803Y013234D02*
X024802Y013234D01*
X024802Y013473D02*
X024803Y013473D01*
X024802Y013711D02*
X024803Y013711D01*
X024482Y013234D02*
X024335Y013234D01*
X027082Y015383D02*
X027583Y015383D01*
X028169Y015968D01*
X028168Y015969D01*
X028134Y015936D01*
X028064Y015885D01*
X027987Y015845D01*
X027905Y015819D01*
X027819Y015805D01*
X027776Y015805D01*
X027776Y016355D01*
X027776Y016355D01*
X027776Y015805D01*
X027732Y015805D01*
X027647Y015819D01*
X027565Y015845D01*
X027488Y015885D01*
X027417Y015936D01*
X027410Y015943D01*
X027332Y015865D01*
X027332Y015747D01*
X027252Y015553D01*
X027103Y015403D01*
X027082Y015383D01*
X027279Y015620D02*
X027820Y015620D01*
X027776Y015858D02*
X027776Y015858D01*
X028012Y015858D02*
X028058Y015858D01*
X027776Y016097D02*
X027776Y016097D01*
X027776Y016335D02*
X027776Y016335D01*
X027776Y016574D02*
X027776Y016574D01*
X027776Y016812D02*
X027776Y016812D01*
X028082Y016812D02*
X028243Y016812D01*
X028331Y017051D02*
X027122Y017051D01*
X027361Y016812D02*
X027469Y016812D01*
X026802Y016353D02*
X026778Y016353D01*
X026776Y016355D01*
X027332Y015858D02*
X027540Y015858D01*
X026482Y017051D02*
X026122Y017051D01*
X025482Y017051D02*
X025122Y017051D01*
X024482Y017051D02*
X024122Y017051D01*
X023482Y017051D02*
X023122Y017051D01*
X022482Y017051D02*
X022122Y017051D01*
X021482Y017051D02*
X021122Y017051D01*
X020482Y017051D02*
X020122Y017051D01*
X019482Y017051D02*
X019122Y017051D01*
X018482Y017051D02*
X018122Y017051D01*
X017482Y017051D02*
X008750Y017051D01*
X008988Y017289D02*
X028092Y017289D01*
X021802Y016353D02*
X021778Y016353D01*
X021776Y016355D01*
X020802Y016353D02*
X020778Y016353D01*
X020776Y016355D01*
X019802Y016353D02*
X019778Y016353D01*
X019776Y016355D01*
X018802Y016353D02*
X018800Y016355D01*
X018776Y016355D01*
X017802Y016353D02*
X017778Y016353D01*
X017776Y016355D01*
X017243Y016812D02*
X017082Y016812D01*
X016776Y016812D02*
X016776Y016812D01*
X016776Y016574D02*
X016776Y016574D01*
X016775Y016355D02*
X016775Y016355D01*
X016226Y016355D01*
X016775Y016355D01*
X016226Y016335D02*
X016069Y016335D01*
X015932Y016574D02*
X016270Y016574D01*
X016469Y016812D02*
X015734Y016812D01*
X010112Y006793D02*
X008367Y006793D01*
D18*
X008802Y015353D03*
X007802Y016353D03*
X006802Y015353D03*
X016802Y016353D03*
X017802Y016353D03*
X018802Y016353D03*
X019802Y016353D03*
X020802Y016353D03*
X021802Y016353D03*
X022802Y016353D03*
X023802Y016353D03*
X024802Y016353D03*
X025802Y016353D03*
X026802Y016353D03*
X027802Y016353D03*
X028802Y016353D03*
X029802Y016353D03*
X030802Y016353D03*
X031802Y016353D03*
D19*
X024802Y011853D03*
X022802Y009853D03*
X020802Y011853D03*
X018802Y009853D03*
X016802Y011853D03*
X025802Y006353D03*
X027802Y009853D03*
D20*
X033927Y004103D03*
X033927Y016353D03*
X004427Y016353D03*
X004427Y004103D03*
M02*
