%
M48
M72
T01C0.0197
T02C0.0240
T03C0.0315
T04C0.0320
T05C0.0394
T06C0.0400
T07C0.1300
%
T01
X18802Y9853
X16802Y11853
X20802Y11853
X22802Y9853
X24802Y11853
X27802Y9853
X25802Y6353
T02
X8802Y15353
X7802Y16353
X6802Y15353
T03
X6802Y15353
X7802Y16353
X8802Y15353
X16802Y16353
X17802Y16353
X18802Y16353
X19802Y16353
X20802Y16353
X21802Y16353
X22802Y16353
X23802Y16353
X24802Y16353
X25802Y16353
X26802Y16353
X27802Y16353
X28802Y16353
X29802Y16353
X30802Y16353
X31802Y16353
T04
X27802Y13853
X26802Y13853
X25802Y13853
X24802Y13853
X23802Y13853
X22802Y13853
X21802Y13853
X20802Y13853
X19802Y13853
X18802Y13853
X17802Y13853
X16802Y13853
X15302Y13853
X14302Y13853
X15302Y12853
X13302Y11853
X13302Y10853
X13302Y9853
X15302Y8853
X16802Y7853
X17802Y7853
X18802Y7853
X19802Y7853
X20802Y7853
X21802Y7853
X22802Y7853
X23802Y7853
X24802Y7853
X25802Y7853
X26802Y7853
X27802Y7853
X30302Y9353
X30302Y10353
X30302Y11353
X30302Y12353
X34302Y12353
X34302Y11353
X34302Y10353
X34302Y9353
X24802Y6353
X19802Y6353
X17802Y6353
X12802Y6353
X11302Y8853
X9302Y9853
X9302Y10853
X9302Y11853
X11302Y12853
X11302Y13853
X12302Y13853
X11302Y16353
X15302Y16353
X6302Y11853
X6302Y10853
X6302Y9853
T05
X16776Y16355
X17776Y16355
X18776Y16355
X19776Y16355
X20776Y16355
X21776Y16355
X22776Y16355
X23776Y16355
X24776Y16355
X25776Y16355
X26776Y16355
X27776Y16355
X28776Y16355
X29776Y16355
X30776Y16355
X31776Y16355
T06
X27802Y4353
X26802Y4353
X25802Y4353
X24802Y4353
X23802Y4353
X22802Y4353
X21802Y4353
X20802Y4353
X19802Y4353
X18802Y4353
X17802Y4353
X16802Y4353
X15802Y4353
X14802Y4353
X13802Y4353
X12802Y4353
X11802Y4353
X10802Y4353
X7802Y4353
X7802Y7353
T07
X4427Y4103
X4427Y16353
X33927Y16353
X33927Y4103
M30
