G75*
G70*
%OFA0B0*%
%FSLAX24Y24*%
%IPPOS*%
%LPD*%
%AMOC8*
5,1,8,0,0,1.08239X$1,22.5*
%
%ADD10C,0.0075*%
%ADD11C,0.0050*%
%ADD12C,0.0040*%
%ADD13C,0.0030*%
%ADD14C,0.0240*%
%ADD15C,0.0060*%
%ADD16R,0.0240X0.0340*%
%ADD17R,0.0340X0.0240*%
%ADD18C,0.0070*%
%ADD19R,0.0200X0.0200*%
%ADD20R,0.0800X0.0200*%
%ADD21R,0.0200X0.0800*%
%ADD22C,0.0100*%
D10*
X010302Y001603D02*
X012302Y001603D01*
X012302Y003103D01*
X015302Y003103D01*
X015302Y001603D01*
X017302Y001603D01*
X017302Y003103D01*
X020302Y003103D01*
X020302Y001603D01*
X025302Y001603D01*
X028302Y001603D01*
X028302Y002353D01*
X025302Y002353D01*
X025302Y001603D01*
X025302Y002353D02*
X010302Y002353D01*
X010302Y001603D01*
X010302Y002353D02*
X010302Y003103D01*
X012302Y003103D01*
X012302Y001603D02*
X015302Y001603D01*
X017302Y001603D02*
X020302Y001603D01*
X020302Y003103D02*
X025302Y003103D01*
X028302Y003103D01*
X028302Y002353D01*
X025302Y002353D02*
X025302Y003103D01*
X017302Y003103D02*
X015302Y003103D01*
D11*
X015802Y002978D02*
X015802Y002478D01*
X015552Y002728D02*
X016052Y002728D01*
X015052Y002728D02*
X014552Y002728D01*
X013052Y002728D02*
X012552Y002728D01*
X012802Y002978D02*
X012802Y002478D01*
X012052Y002728D02*
X011552Y002728D01*
X011052Y002728D02*
X010552Y002728D01*
X010802Y002978D02*
X010802Y002478D01*
X010758Y005098D02*
X010758Y005548D01*
X010983Y005548D01*
X011058Y005473D01*
X011058Y005323D01*
X010983Y005248D01*
X010758Y005248D01*
X010523Y005173D02*
X010523Y005548D01*
X010598Y005548D02*
X010447Y005548D01*
X010523Y005173D02*
X010447Y005098D01*
X010372Y005098D01*
X010297Y005173D01*
X011218Y005098D02*
X011518Y005098D01*
X011368Y005098D02*
X011368Y005548D01*
X011218Y005398D01*
X014844Y006140D02*
X014844Y006591D01*
X015069Y006591D01*
X015144Y006516D01*
X015144Y006365D01*
X015069Y006290D01*
X014844Y006290D01*
X014994Y006290D02*
X015144Y006140D01*
X015304Y006215D02*
X015380Y006140D01*
X015530Y006140D01*
X015605Y006215D01*
X015605Y006290D01*
X015530Y006365D01*
X015455Y006365D01*
X015530Y006365D02*
X015605Y006440D01*
X015605Y006516D01*
X015530Y006591D01*
X015380Y006591D01*
X015304Y006516D01*
X013252Y009804D02*
X013252Y010300D01*
X013252Y010406D01*
X013252Y011300D01*
X013252Y011406D01*
X013252Y011902D01*
X012652Y011678D02*
X012652Y010028D01*
X012352Y010545D02*
X011902Y010545D01*
X011902Y010395D02*
X011902Y010695D01*
X012052Y010855D02*
X011902Y011005D01*
X012352Y011005D01*
X012352Y010855D02*
X012352Y011155D01*
X011502Y011168D02*
X011502Y010867D01*
X011202Y011168D01*
X011127Y011168D01*
X011052Y011093D01*
X011052Y010942D01*
X011127Y010867D01*
X011127Y010707D02*
X011277Y010707D01*
X011352Y010632D01*
X011352Y010407D01*
X011352Y010557D02*
X011502Y010707D01*
X011502Y010407D02*
X011052Y010407D01*
X011052Y010632D01*
X011127Y010707D01*
X008864Y009899D02*
X008808Y009926D01*
X008754Y009957D01*
X008702Y009991D01*
X008652Y010028D01*
X008652Y011678D01*
X009252Y011902D02*
X009252Y011406D01*
X009252Y011300D01*
X009252Y010406D01*
X009252Y010300D01*
X009252Y009804D01*
X008352Y010545D02*
X007902Y010545D01*
X007902Y010395D02*
X007902Y010695D01*
X007977Y010855D02*
X007902Y010930D01*
X007902Y011080D01*
X007977Y011155D01*
X008052Y011155D01*
X008352Y010855D01*
X008352Y011155D01*
X009252Y009804D02*
X009316Y009803D01*
X009380Y009806D01*
X009444Y009813D01*
X009507Y009823D01*
X009569Y009838D01*
X009630Y009856D01*
X009691Y009878D01*
X009749Y009903D01*
X009252Y009804D02*
X009193Y009809D01*
X009135Y009816D01*
X009077Y009827D01*
X009020Y009842D01*
X008964Y009859D01*
X008909Y009879D01*
X008855Y009903D01*
X009252Y011902D02*
X009316Y011903D01*
X009380Y011900D01*
X009444Y011893D01*
X009507Y011883D01*
X009569Y011868D01*
X009630Y011850D01*
X009691Y011828D01*
X009749Y011803D01*
X008855Y011803D02*
X008801Y011776D01*
X008750Y011746D01*
X008700Y011713D01*
X008652Y011678D01*
X009749Y011803D02*
X009806Y011774D01*
X009862Y011741D01*
X009915Y011706D01*
X009966Y011666D01*
X010014Y011624D01*
X010060Y011579D01*
X010103Y011532D01*
X010143Y011482D01*
X010180Y011429D01*
X010213Y011374D01*
X010244Y011318D01*
X010270Y011259D01*
X010293Y011199D01*
X010313Y011138D01*
X010328Y011076D01*
X010340Y011013D01*
X010348Y010949D01*
X010352Y010885D01*
X010352Y010821D01*
X010348Y010757D01*
X010340Y010693D01*
X010328Y010630D01*
X010313Y010568D01*
X010293Y010507D01*
X010270Y010447D01*
X010244Y010388D01*
X010213Y010332D01*
X010180Y010277D01*
X010143Y010224D01*
X010103Y010174D01*
X010060Y010127D01*
X010014Y010082D01*
X009966Y010040D01*
X009915Y010000D01*
X009862Y009965D01*
X009806Y009932D01*
X009749Y009903D01*
X009252Y011902D02*
X009193Y011897D01*
X009135Y011890D01*
X009077Y011879D01*
X009020Y011864D01*
X008964Y011847D01*
X008909Y011827D01*
X008855Y011803D01*
X006252Y011902D02*
X006252Y011406D01*
X006252Y011300D01*
X006252Y010406D01*
X006252Y010300D01*
X006252Y009804D01*
X005652Y010028D02*
X005652Y011678D01*
X005277Y011155D02*
X005352Y011080D01*
X005352Y010930D01*
X005277Y010855D01*
X005127Y011005D02*
X005127Y011080D01*
X005202Y011155D01*
X005277Y011155D01*
X005127Y011080D02*
X005052Y011155D01*
X004977Y011155D01*
X004902Y011080D01*
X004902Y010930D01*
X004977Y010855D01*
X004902Y010695D02*
X004902Y010395D01*
X004902Y010545D02*
X005352Y010545D01*
X005652Y010028D02*
X005702Y009991D01*
X005754Y009957D01*
X005808Y009926D01*
X005864Y009899D01*
X006252Y009804D02*
X006316Y009803D01*
X006380Y009806D01*
X006444Y009813D01*
X006507Y009823D01*
X006569Y009838D01*
X006630Y009856D01*
X006691Y009878D01*
X006749Y009903D01*
X006252Y009804D02*
X006193Y009809D01*
X006135Y009816D01*
X006077Y009827D01*
X006020Y009842D01*
X005964Y009859D01*
X005909Y009879D01*
X005855Y009903D01*
X006252Y011902D02*
X006316Y011903D01*
X006380Y011900D01*
X006444Y011893D01*
X006507Y011883D01*
X006569Y011868D01*
X006630Y011850D01*
X006691Y011828D01*
X006749Y011803D01*
X005855Y011803D02*
X005801Y011776D01*
X005750Y011746D01*
X005700Y011713D01*
X005652Y011678D01*
X006749Y011803D02*
X006806Y011774D01*
X006862Y011741D01*
X006915Y011706D01*
X006966Y011666D01*
X007014Y011624D01*
X007060Y011579D01*
X007103Y011532D01*
X007143Y011482D01*
X007180Y011429D01*
X007213Y011374D01*
X007244Y011318D01*
X007270Y011259D01*
X007293Y011199D01*
X007313Y011138D01*
X007328Y011076D01*
X007340Y011013D01*
X007348Y010949D01*
X007352Y010885D01*
X007352Y010821D01*
X007348Y010757D01*
X007340Y010693D01*
X007328Y010630D01*
X007313Y010568D01*
X007293Y010507D01*
X007270Y010447D01*
X007244Y010388D01*
X007213Y010332D01*
X007180Y010277D01*
X007143Y010224D01*
X007103Y010174D01*
X007060Y010127D01*
X007014Y010082D01*
X006966Y010040D01*
X006915Y010000D01*
X006862Y009965D01*
X006806Y009932D01*
X006749Y009903D01*
X006252Y011902D02*
X006193Y011897D01*
X006135Y011890D01*
X006077Y011879D01*
X006020Y011864D01*
X005964Y011847D01*
X005909Y011827D01*
X005855Y011803D01*
X010861Y014978D02*
X011161Y014978D01*
X011321Y014978D02*
X011621Y014978D01*
X011782Y014978D02*
X012007Y014978D01*
X012082Y015053D01*
X012082Y015353D01*
X012007Y015428D01*
X011782Y015428D01*
X011782Y014978D01*
X011471Y015203D02*
X011321Y015203D01*
X011321Y015428D02*
X011321Y014978D01*
X010861Y014978D02*
X010861Y015428D01*
X011321Y015428D02*
X011621Y015428D01*
X012242Y015353D02*
X012317Y015428D01*
X012467Y015428D01*
X012542Y015353D01*
X012542Y015278D01*
X012242Y014978D01*
X012542Y014978D01*
X013861Y014978D02*
X014161Y014978D01*
X014321Y014978D02*
X014621Y014978D01*
X014782Y014978D02*
X015007Y014978D01*
X015082Y015053D01*
X015082Y015353D01*
X015007Y015428D01*
X014782Y015428D01*
X014782Y014978D01*
X014471Y015203D02*
X014321Y015203D01*
X014321Y015428D02*
X014321Y014978D01*
X013861Y014978D02*
X013861Y015428D01*
X014321Y015428D02*
X014621Y015428D01*
X015242Y015278D02*
X015392Y015428D01*
X015392Y014978D01*
X015242Y014978D02*
X015542Y014978D01*
X013588Y016103D02*
X013588Y016553D01*
X013363Y016328D01*
X013663Y016328D01*
X013203Y016328D02*
X013128Y016253D01*
X012902Y016253D01*
X012902Y016103D02*
X012902Y016553D01*
X013128Y016553D01*
X013203Y016478D01*
X013203Y016328D01*
X013052Y016253D02*
X013203Y016103D01*
X015052Y011018D02*
X015502Y011018D01*
X015502Y011168D02*
X015502Y010867D01*
X015502Y010707D02*
X015352Y010557D01*
X015352Y010632D02*
X015352Y010407D01*
X015502Y010407D02*
X015052Y010407D01*
X015052Y010632D01*
X015127Y010707D01*
X015277Y010707D01*
X015352Y010632D01*
X015202Y010867D02*
X015052Y011018D01*
X013252Y009804D02*
X013193Y009809D01*
X013135Y009816D01*
X013077Y009827D01*
X013020Y009842D01*
X012964Y009859D01*
X012909Y009879D01*
X012855Y009903D01*
X012864Y009899D02*
X012808Y009926D01*
X012754Y009957D01*
X012702Y009991D01*
X012652Y010028D01*
X013252Y009804D02*
X013316Y009803D01*
X013380Y009806D01*
X013444Y009813D01*
X013507Y009823D01*
X013569Y009838D01*
X013630Y009856D01*
X013691Y009878D01*
X013749Y009903D01*
X013252Y011902D02*
X013193Y011897D01*
X013135Y011890D01*
X013077Y011879D01*
X013020Y011864D01*
X012964Y011847D01*
X012909Y011827D01*
X012855Y011803D01*
X012801Y011776D01*
X012750Y011746D01*
X012700Y011713D01*
X012652Y011678D01*
X013252Y011902D02*
X013316Y011903D01*
X013380Y011900D01*
X013444Y011893D01*
X013507Y011883D01*
X013569Y011868D01*
X013630Y011850D01*
X013691Y011828D01*
X013749Y011803D01*
X013806Y011774D01*
X013862Y011741D01*
X013915Y011706D01*
X013966Y011666D01*
X014014Y011624D01*
X014060Y011579D01*
X014103Y011532D01*
X014143Y011482D01*
X014180Y011429D01*
X014213Y011374D01*
X014244Y011318D01*
X014270Y011259D01*
X014293Y011199D01*
X014313Y011138D01*
X014328Y011076D01*
X014340Y011013D01*
X014348Y010949D01*
X014352Y010885D01*
X014352Y010821D01*
X014348Y010757D01*
X014340Y010693D01*
X014328Y010630D01*
X014313Y010568D01*
X014293Y010507D01*
X014270Y010447D01*
X014244Y010388D01*
X014213Y010332D01*
X014180Y010277D01*
X014143Y010224D01*
X014103Y010174D01*
X014060Y010127D01*
X014014Y010082D01*
X013966Y010040D01*
X013915Y010000D01*
X013862Y009965D01*
X013806Y009932D01*
X013749Y009903D01*
X006652Y006418D02*
X006652Y006117D01*
X006652Y006267D02*
X006202Y006267D01*
X006352Y006117D01*
X006277Y005957D02*
X006202Y005882D01*
X006202Y005732D01*
X006277Y005657D01*
X006577Y005657D01*
X006652Y005732D01*
X006652Y005882D01*
X006577Y005957D01*
X006427Y005957D01*
X006427Y005807D01*
X006502Y005497D02*
X006577Y005497D01*
X006652Y005422D01*
X006652Y005272D01*
X006577Y005197D01*
X006427Y005272D02*
X006427Y005422D01*
X006502Y005497D01*
X006277Y005497D02*
X006202Y005422D01*
X006202Y005272D01*
X006277Y005197D01*
X006352Y005197D01*
X006427Y005272D01*
X017552Y002728D02*
X018052Y002728D01*
X017802Y002978D02*
X017802Y002478D01*
X019552Y002728D02*
X020052Y002728D01*
X024552Y002728D02*
X025052Y002728D01*
X025552Y002728D02*
X026052Y002728D01*
X025802Y002978D02*
X025802Y002478D01*
X027552Y002728D02*
X028052Y002728D01*
X030572Y003803D02*
X030842Y003493D01*
X030856Y003482D01*
X030872Y003473D01*
X030889Y003468D01*
X030907Y003466D01*
X030925Y003468D01*
X030942Y003473D01*
X030958Y003482D01*
X030972Y003493D01*
X031252Y003863D01*
X032222Y003103D02*
X032220Y003031D01*
X032214Y002960D01*
X032205Y002888D01*
X032191Y002818D01*
X032174Y002748D01*
X032154Y002679D01*
X032129Y002611D01*
X032101Y002545D01*
X032070Y002481D01*
X032035Y002418D01*
X031997Y002357D01*
X031956Y002298D01*
X031911Y002241D01*
X031864Y002187D01*
X031814Y002136D01*
X031761Y002087D01*
X031706Y002041D01*
X031648Y001998D01*
X031588Y001959D01*
X031526Y001922D01*
X031462Y001889D01*
X031397Y001859D01*
X031330Y001833D01*
X031262Y001810D01*
X031192Y001792D01*
X031122Y001776D01*
X031051Y001765D01*
X030980Y001757D01*
X030908Y001753D01*
X030836Y001753D01*
X030764Y001757D01*
X030693Y001765D01*
X030622Y001776D01*
X030552Y001792D01*
X030482Y001810D01*
X030414Y001833D01*
X030347Y001859D01*
X030282Y001889D01*
X030218Y001922D01*
X030156Y001959D01*
X030096Y001998D01*
X030038Y002041D01*
X029983Y002087D01*
X029930Y002136D01*
X029880Y002187D01*
X029833Y002241D01*
X029788Y002298D01*
X029747Y002357D01*
X029709Y002418D01*
X029674Y002481D01*
X029643Y002545D01*
X029615Y002611D01*
X029590Y002679D01*
X029570Y002748D01*
X029553Y002818D01*
X029539Y002888D01*
X029530Y002960D01*
X029524Y003031D01*
X029522Y003103D01*
X022650Y006190D02*
X022650Y006491D01*
X022575Y006566D01*
X022425Y006566D01*
X022350Y006491D01*
X022350Y006415D01*
X022425Y006340D01*
X022650Y006340D01*
X022650Y006190D02*
X022575Y006115D01*
X022425Y006115D01*
X022350Y006190D01*
X022190Y006115D02*
X022040Y006265D01*
X022115Y006265D02*
X021890Y006265D01*
X021890Y006115D02*
X021890Y006566D01*
X022115Y006566D01*
X022190Y006491D01*
X022190Y006340D01*
X022115Y006265D01*
X031877Y009103D02*
X031877Y009553D01*
X032103Y009553D01*
X032178Y009478D01*
X032178Y009328D01*
X032103Y009253D01*
X031877Y009253D01*
X032027Y009253D02*
X032178Y009103D01*
X032338Y009178D02*
X032413Y009103D01*
X032563Y009103D01*
X032638Y009178D01*
X032638Y009328D01*
X032563Y009403D01*
X032488Y009403D01*
X032338Y009328D01*
X032338Y009553D01*
X032638Y009553D01*
X032563Y010103D02*
X032638Y010178D01*
X032638Y010253D01*
X032563Y010328D01*
X032338Y010328D01*
X032338Y010178D01*
X032413Y010103D01*
X032563Y010103D01*
X032338Y010328D02*
X032488Y010478D01*
X032638Y010553D01*
X032178Y010478D02*
X032178Y010328D01*
X032103Y010253D01*
X031877Y010253D01*
X031877Y010103D02*
X031877Y010553D01*
X032103Y010553D01*
X032178Y010478D01*
X032027Y010253D02*
X032178Y010103D01*
X032178Y011103D02*
X032027Y011253D01*
X032103Y011253D02*
X031877Y011253D01*
X031877Y011103D02*
X031877Y011553D01*
X032103Y011553D01*
X032178Y011478D01*
X032178Y011328D01*
X032103Y011253D01*
X032338Y011178D02*
X032338Y011103D01*
X032338Y011178D02*
X032638Y011478D01*
X032638Y011553D01*
X032338Y011553D01*
X032413Y012103D02*
X032338Y012178D01*
X032338Y012253D01*
X032413Y012328D01*
X032563Y012328D01*
X032638Y012253D01*
X032638Y012178D01*
X032563Y012103D01*
X032413Y012103D01*
X032413Y012328D02*
X032338Y012403D01*
X032338Y012478D01*
X032413Y012553D01*
X032563Y012553D01*
X032638Y012478D01*
X032638Y012403D01*
X032563Y012328D01*
X032178Y012328D02*
X032178Y012478D01*
X032103Y012553D01*
X031877Y012553D01*
X031877Y012103D01*
X031877Y012253D02*
X032103Y012253D01*
X032178Y012328D01*
X032027Y012253D02*
X032178Y012103D01*
D12*
X003524Y001748D02*
X003447Y001824D01*
X003447Y002055D01*
X003754Y002055D02*
X003754Y001824D01*
X003678Y001748D01*
X003601Y001824D01*
X003524Y001748D01*
X003908Y001824D02*
X003984Y001748D01*
X004061Y001824D01*
X004138Y001748D01*
X004215Y001824D01*
X004215Y002055D01*
X004368Y002055D02*
X004368Y001824D01*
X004445Y001748D01*
X004521Y001824D01*
X004598Y001748D01*
X004675Y001824D01*
X004675Y002055D01*
X005059Y001978D02*
X005135Y002055D01*
X005289Y002055D01*
X005365Y001978D01*
X005365Y001748D01*
X005519Y001748D02*
X005749Y001748D01*
X005826Y001824D01*
X005826Y001978D01*
X005749Y002055D01*
X005519Y002055D01*
X005519Y002208D02*
X005519Y001748D01*
X005979Y001748D02*
X006209Y001748D01*
X006286Y001824D01*
X006286Y001978D01*
X006209Y002055D01*
X005979Y002055D01*
X005979Y001594D01*
X006440Y001748D02*
X006440Y002055D01*
X006593Y002055D02*
X006440Y001901D01*
X006593Y002055D02*
X006670Y002055D01*
X006823Y001978D02*
X006823Y001824D01*
X006900Y001748D01*
X007053Y001748D01*
X007130Y001824D01*
X007130Y001978D01*
X007053Y002055D01*
X006900Y002055D01*
X006823Y001978D01*
X007284Y001824D02*
X007360Y001824D01*
X007360Y001748D01*
X007284Y001748D01*
X007284Y001824D01*
X007514Y001748D02*
X007514Y002055D01*
X007667Y002055D02*
X007514Y001901D01*
X007667Y002055D02*
X007744Y002055D01*
X007897Y002055D02*
X007897Y001824D01*
X007974Y001748D01*
X008204Y001748D01*
X008204Y002055D01*
X007897Y002498D02*
X007591Y002498D01*
X007897Y002805D01*
X007897Y002881D01*
X007821Y002958D01*
X007667Y002958D01*
X007591Y002881D01*
X007207Y002881D02*
X007207Y002805D01*
X007130Y002728D01*
X007207Y002651D01*
X007207Y002574D01*
X007130Y002498D01*
X006977Y002498D01*
X006900Y002574D01*
X007053Y002728D02*
X007130Y002728D01*
X007207Y002881D02*
X007130Y002958D01*
X006977Y002958D01*
X006900Y002881D01*
X007360Y002574D02*
X007437Y002574D01*
X007437Y002498D01*
X007360Y002498D01*
X007360Y002574D01*
X006286Y002498D02*
X006286Y002728D01*
X006209Y002805D01*
X005979Y002805D01*
X005979Y002498D01*
X005826Y002574D02*
X005826Y002728D01*
X005749Y002805D01*
X005596Y002805D01*
X005519Y002728D01*
X005519Y002574D01*
X005596Y002498D01*
X005749Y002498D01*
X005826Y002574D01*
X005365Y002498D02*
X005212Y002498D01*
X005289Y002498D02*
X005289Y002805D01*
X005212Y002805D01*
X005059Y002805D02*
X004828Y002805D01*
X004752Y002728D01*
X004828Y002651D01*
X004982Y002651D01*
X005059Y002574D01*
X004982Y002498D01*
X004752Y002498D01*
X004598Y002805D02*
X004521Y002805D01*
X004368Y002651D01*
X004368Y002498D02*
X004368Y002805D01*
X004215Y002728D02*
X004215Y002651D01*
X003908Y002651D01*
X003908Y002574D02*
X003908Y002728D01*
X003984Y002805D01*
X004138Y002805D01*
X004215Y002728D01*
X004138Y002498D02*
X003984Y002498D01*
X003908Y002574D01*
X003754Y002651D02*
X003754Y002958D01*
X003447Y002958D02*
X003447Y002651D01*
X003601Y002498D01*
X003754Y002651D01*
X003908Y002055D02*
X003908Y001824D01*
X004828Y001824D02*
X004905Y001824D01*
X004905Y001748D01*
X004828Y001748D01*
X004828Y001824D01*
X005059Y001748D02*
X005059Y002208D01*
X005289Y002958D02*
X005289Y003035D01*
X010947Y002208D02*
X010947Y001978D01*
X011101Y002055D01*
X011178Y002055D01*
X011254Y001978D01*
X011254Y001824D01*
X011178Y001748D01*
X011024Y001748D01*
X010947Y001824D01*
X010947Y002208D02*
X011254Y002208D01*
X011408Y002208D02*
X011408Y001901D01*
X011561Y001748D01*
X011715Y001901D01*
X011715Y002208D01*
X012947Y002208D02*
X012947Y001748D01*
X012947Y001901D02*
X013178Y001901D01*
X013254Y001978D01*
X013254Y002131D01*
X013178Y002208D01*
X012947Y002208D01*
X013408Y002208D02*
X013408Y001824D01*
X013484Y001748D01*
X013638Y001748D01*
X013715Y001824D01*
X013715Y002208D01*
X013868Y002208D02*
X014021Y002055D01*
X014175Y002208D01*
X014175Y001748D01*
X014328Y001748D02*
X014328Y002208D01*
X014559Y002208D01*
X014635Y002131D01*
X014635Y001978D01*
X014559Y001901D01*
X014328Y001901D01*
X013868Y001748D02*
X013868Y002208D01*
X013865Y002498D02*
X013942Y002574D01*
X013865Y002498D02*
X013712Y002498D01*
X013635Y002574D01*
X013635Y002881D01*
X013712Y002958D01*
X013865Y002958D01*
X013942Y002881D01*
X015510Y002208D02*
X015510Y001748D01*
X015510Y001978D02*
X015817Y001978D01*
X015970Y001978D02*
X016124Y001978D01*
X016277Y002208D02*
X015970Y002208D01*
X015970Y001748D01*
X016277Y001748D01*
X016431Y001748D02*
X016431Y002055D01*
X016584Y002208D01*
X016737Y002055D01*
X016737Y001748D01*
X016737Y001978D02*
X016431Y001978D01*
X016891Y002208D02*
X017198Y002208D01*
X017044Y002208D02*
X017044Y001748D01*
X017510Y001748D02*
X017510Y002208D01*
X017740Y002208D01*
X017817Y002131D01*
X017817Y001824D01*
X017740Y001748D01*
X017510Y001748D01*
X017970Y001748D02*
X017970Y002055D01*
X018124Y002208D01*
X018277Y002055D01*
X018277Y001748D01*
X018431Y001748D02*
X018737Y001748D01*
X018891Y001748D02*
X019198Y001748D01*
X019351Y001748D02*
X019351Y002055D01*
X019505Y002208D01*
X019658Y002055D01*
X019658Y001748D01*
X019812Y001824D02*
X019888Y001748D01*
X020042Y001748D01*
X020119Y001824D01*
X020119Y001901D01*
X020042Y001978D01*
X019888Y001978D01*
X019812Y002055D01*
X019812Y002131D01*
X019888Y002208D01*
X020042Y002208D01*
X020119Y002131D01*
X019658Y001978D02*
X019351Y001978D01*
X018891Y002208D02*
X018891Y001748D01*
X018431Y001748D02*
X018431Y002208D01*
X018277Y001978D02*
X017970Y001978D01*
X018635Y002498D02*
X018865Y002498D01*
X018942Y002574D01*
X018942Y002881D01*
X018865Y002958D01*
X018635Y002958D01*
X018635Y002498D01*
X016942Y002574D02*
X016865Y002498D01*
X016712Y002498D01*
X016635Y002574D01*
X016635Y002881D01*
X016712Y002958D01*
X016865Y002958D01*
X016942Y002881D01*
X015817Y002208D02*
X015817Y001748D01*
X020635Y002498D02*
X020942Y002498D01*
X020788Y002498D02*
X020788Y002958D01*
X020635Y002805D01*
X021322Y002208D02*
X021553Y002208D01*
X021629Y002131D01*
X021629Y002055D01*
X021553Y001978D01*
X021322Y001978D01*
X021322Y001748D02*
X021322Y002208D01*
X021553Y001978D02*
X021629Y001901D01*
X021629Y001824D01*
X021553Y001748D01*
X021322Y001748D01*
X021783Y001824D02*
X021859Y001748D01*
X022013Y001748D01*
X022090Y001824D01*
X022090Y002208D01*
X022243Y002208D02*
X022550Y002208D01*
X022703Y002208D02*
X023010Y002208D01*
X022857Y002208D02*
X022857Y001748D01*
X023164Y001824D02*
X023240Y001748D01*
X023394Y001748D01*
X023471Y001824D01*
X023471Y002131D01*
X023394Y002208D01*
X023240Y002208D01*
X023164Y002131D01*
X023164Y001824D01*
X023624Y001748D02*
X023624Y002208D01*
X023931Y001748D01*
X023931Y002208D01*
X024084Y002131D02*
X024084Y002055D01*
X024161Y001978D01*
X024315Y001978D01*
X024391Y001901D01*
X024391Y001824D01*
X024315Y001748D01*
X024161Y001748D01*
X024084Y001824D01*
X024084Y002131D02*
X024161Y002208D01*
X024315Y002208D01*
X024391Y002131D01*
X023928Y002498D02*
X023928Y002958D01*
X023697Y002728D01*
X024004Y002728D01*
X023004Y002651D02*
X023004Y002574D01*
X022928Y002498D01*
X022774Y002498D01*
X022697Y002574D01*
X022851Y002728D02*
X022928Y002728D01*
X023004Y002651D01*
X022928Y002728D02*
X023004Y002805D01*
X023004Y002881D01*
X022928Y002958D01*
X022774Y002958D01*
X022697Y002881D01*
X021942Y002881D02*
X021942Y002805D01*
X021635Y002498D01*
X021942Y002498D01*
X021783Y002208D02*
X021783Y001824D01*
X022396Y001748D02*
X022396Y002208D01*
X021942Y002881D02*
X021865Y002958D01*
X021712Y002958D01*
X021635Y002881D01*
X026135Y002208D02*
X026135Y001748D01*
X026442Y001748D01*
X026595Y001748D02*
X026902Y002208D01*
X027056Y002208D02*
X027362Y002208D01*
X027209Y002208D02*
X027209Y001748D01*
X026902Y001748D02*
X026595Y002208D01*
X026442Y002208D02*
X026135Y002208D01*
X026135Y001978D02*
X026288Y001978D01*
X026447Y002498D02*
X026601Y002498D01*
X026524Y002498D02*
X026524Y002958D01*
X026447Y002958D02*
X026601Y002958D01*
X026754Y002881D02*
X026754Y002574D01*
X026831Y002498D01*
X026984Y002498D01*
X027061Y002574D01*
X027061Y002881D01*
X026984Y002958D01*
X026831Y002958D01*
X026754Y002881D01*
X030322Y002958D02*
X030322Y002498D01*
X030322Y002728D02*
X030629Y002728D01*
X030783Y002728D02*
X031013Y002728D01*
X031090Y002651D01*
X031090Y002574D01*
X031013Y002498D01*
X030783Y002498D01*
X030783Y002958D01*
X031013Y002958D01*
X031090Y002881D01*
X031090Y002805D01*
X031013Y002728D01*
X031243Y002651D02*
X031473Y002651D01*
X031550Y002728D01*
X031550Y002881D01*
X031473Y002958D01*
X031243Y002958D01*
X031243Y002498D01*
X030629Y002498D02*
X030629Y002958D01*
X008478Y014231D02*
X008401Y014155D01*
X008247Y014155D01*
X008171Y014231D01*
X008478Y014538D01*
X008478Y014231D01*
X008171Y014231D02*
X008171Y014538D01*
X008247Y014615D01*
X008401Y014615D01*
X008478Y014538D01*
X008017Y014155D02*
X007710Y014155D01*
X007557Y014155D02*
X007403Y014308D01*
X007480Y014308D02*
X007250Y014308D01*
X007250Y014155D02*
X007250Y014615D01*
X007480Y014615D01*
X007557Y014538D01*
X007557Y014385D01*
X007480Y014308D01*
X007710Y014462D02*
X007864Y014615D01*
X007864Y014155D01*
D13*
X029772Y004323D02*
X029768Y004247D01*
X029760Y004171D01*
X029749Y004096D01*
X029734Y004022D01*
X029716Y003948D01*
X029695Y003875D01*
X029670Y003803D01*
X029642Y003733D01*
X029632Y003713D01*
X029612Y003683D01*
X029612Y003673D02*
X029662Y003783D01*
X029708Y003899D01*
X029742Y004019D01*
X029762Y004143D01*
X029782Y004413D01*
X029791Y004495D01*
X029811Y004576D01*
X029842Y004653D01*
X029932Y004823D01*
X030011Y004939D01*
X030107Y005041D01*
X030218Y005127D01*
X030340Y005195D01*
X030472Y005243D01*
X030292Y005103D01*
X030229Y005045D01*
X030175Y004978D01*
X030133Y004903D01*
X030103Y004823D01*
X030086Y004739D01*
X030082Y004653D01*
X030152Y004703D01*
X030342Y004823D01*
X030396Y004846D01*
X030454Y004860D01*
X030512Y004863D01*
X030591Y004853D01*
X030666Y004831D01*
X030738Y004796D01*
X030802Y004751D01*
X030859Y004696D01*
X030906Y004633D01*
X030942Y004563D01*
X030992Y004613D01*
X031041Y004653D01*
X031097Y004683D01*
X031157Y004701D01*
X031220Y004708D01*
X031282Y004703D01*
X031393Y004675D01*
X031499Y004634D01*
X031600Y004579D01*
X031692Y004513D01*
X031692Y004693D01*
X031688Y004761D01*
X031674Y004828D01*
X031652Y004893D01*
X031610Y004976D01*
X031555Y005051D01*
X031489Y005117D01*
X031414Y005172D01*
X031331Y005214D01*
X031242Y005243D01*
X031472Y005173D01*
X031483Y005169D01*
X031492Y005163D01*
X031652Y005043D01*
X031736Y004968D01*
X031806Y004880D01*
X031862Y004783D01*
X031915Y004654D01*
X031953Y004520D01*
X031692Y004520D01*
X031692Y004513D02*
X031692Y004653D01*
X031692Y004663D02*
X031911Y004663D01*
X031920Y004634D02*
X031692Y004634D01*
X031692Y004606D02*
X031929Y004606D01*
X031937Y004577D02*
X031692Y004577D01*
X031692Y004549D02*
X031945Y004549D01*
X031953Y004520D02*
X031975Y004382D01*
X031982Y004243D01*
X031991Y004100D01*
X032020Y003959D01*
X032067Y003823D01*
X032133Y003696D01*
X032215Y003578D01*
X032312Y003473D01*
X032355Y003439D01*
X032402Y003413D01*
X032499Y003360D01*
X032585Y003293D01*
X032661Y003213D01*
X032722Y003123D01*
X032802Y003003D01*
X032802Y002973D01*
X032800Y002954D01*
X032793Y002937D01*
X032781Y002922D01*
X032666Y002922D01*
X032675Y002916D02*
X032642Y002936D01*
X032612Y002963D01*
X032548Y003024D01*
X032475Y003074D01*
X032395Y003113D01*
X032310Y003139D01*
X032222Y003153D01*
X032222Y003043D01*
X032202Y002903D01*
X032172Y002752D01*
X032124Y002605D01*
X032059Y002465D01*
X031978Y002334D01*
X031882Y002213D01*
X031932Y002333D01*
X031947Y002382D01*
X031952Y002433D01*
X031952Y002703D01*
X031942Y002891D01*
X031912Y003076D01*
X031862Y003258D01*
X031792Y003433D01*
X031733Y003543D01*
X031660Y003644D01*
X031574Y003736D01*
X031478Y003816D01*
X031372Y003883D01*
X031422Y003903D01*
X031474Y003930D01*
X031520Y003966D01*
X031559Y004010D01*
X031588Y004061D01*
X031607Y004116D01*
X031615Y004174D01*
X031612Y004233D01*
X031593Y004320D01*
X031978Y004320D01*
X031980Y004292D02*
X031599Y004292D01*
X031593Y004320D02*
X031562Y004403D01*
X031535Y004450D01*
X031499Y004491D01*
X031455Y004525D01*
X031405Y004549D01*
X031352Y004563D01*
X031261Y004569D01*
X031170Y004559D01*
X031082Y004533D01*
X031051Y004516D01*
X031023Y004492D01*
X031002Y004463D01*
X030922Y004323D01*
X030907Y004288D01*
X030900Y004251D01*
X030902Y004213D01*
X030925Y004120D01*
X030863Y004120D01*
X030866Y004128D02*
X030873Y004165D01*
X030872Y004203D01*
X030872Y004303D01*
X030866Y004376D01*
X030846Y004446D01*
X030814Y004512D01*
X030770Y004570D01*
X030717Y004620D01*
X030655Y004659D01*
X030587Y004687D01*
X030515Y004701D01*
X030442Y004703D01*
X030377Y004691D01*
X030136Y004691D01*
X030132Y004693D02*
X030082Y004653D01*
X030083Y004663D02*
X029848Y004663D01*
X029835Y004634D02*
X030263Y004634D01*
X030258Y004631D02*
X030210Y004585D01*
X030172Y004530D01*
X030146Y004468D01*
X030132Y004403D01*
X030129Y004284D01*
X030143Y004166D01*
X030174Y004051D01*
X030222Y003943D01*
X030248Y003905D01*
X030282Y003875D01*
X030322Y003853D01*
X030327Y003852D01*
X030332Y003853D01*
X030232Y003773D01*
X030122Y003671D01*
X030027Y003555D01*
X029950Y003426D01*
X029891Y003288D01*
X029852Y003143D01*
X029813Y002841D01*
X029810Y002536D01*
X029842Y002233D01*
X029782Y002313D01*
X029687Y002460D01*
X029612Y002618D01*
X029559Y002785D01*
X029529Y002958D01*
X029522Y003133D01*
X029472Y003123D01*
X029406Y003105D01*
X029342Y003078D01*
X029282Y003043D01*
X029042Y002893D01*
X029039Y002892D01*
X029036Y002892D01*
X029032Y002893D01*
X029022Y002893D01*
X029004Y002895D01*
X028987Y002902D01*
X028973Y002913D01*
X028962Y002928D01*
X028955Y002945D01*
X028952Y002963D01*
X028956Y002992D01*
X028966Y003019D01*
X028982Y003043D01*
X029042Y003133D01*
X029112Y003223D01*
X029192Y003304D01*
X029282Y003373D01*
X029402Y003462D01*
X029513Y003562D01*
X029612Y003673D01*
X029604Y003664D02*
X030116Y003664D01*
X030093Y003635D02*
X029579Y003635D01*
X029553Y003607D02*
X030070Y003607D01*
X030046Y003578D02*
X029527Y003578D01*
X029499Y003550D02*
X030024Y003550D01*
X030007Y003521D02*
X029468Y003521D01*
X029436Y003493D02*
X029990Y003493D01*
X029973Y003464D02*
X029405Y003464D01*
X029367Y003435D02*
X029955Y003435D01*
X029942Y003407D02*
X029328Y003407D01*
X029290Y003378D02*
X029929Y003378D01*
X029917Y003350D02*
X029252Y003350D01*
X029215Y003321D02*
X029905Y003321D01*
X029893Y003293D02*
X029181Y003293D01*
X029153Y003264D02*
X029885Y003264D01*
X029877Y003236D02*
X029124Y003236D01*
X029099Y003207D02*
X029869Y003207D01*
X029862Y003179D02*
X029077Y003179D01*
X029056Y003150D02*
X029854Y003150D01*
X029850Y003121D02*
X029523Y003121D01*
X029522Y003133D02*
X029522Y003103D01*
X029524Y003093D02*
X029846Y003093D01*
X029842Y003064D02*
X029525Y003064D01*
X029526Y003036D02*
X029838Y003036D01*
X029835Y003007D02*
X029527Y003007D01*
X029528Y002979D02*
X029831Y002979D01*
X029827Y002950D02*
X029530Y002950D01*
X029535Y002922D02*
X029824Y002922D01*
X029820Y002893D02*
X029540Y002893D01*
X029545Y002865D02*
X029816Y002865D01*
X029813Y002836D02*
X029550Y002836D01*
X029555Y002807D02*
X029813Y002807D01*
X029812Y002779D02*
X029561Y002779D01*
X029570Y002750D02*
X029812Y002750D01*
X029812Y002722D02*
X029579Y002722D01*
X029588Y002693D02*
X029811Y002693D01*
X029811Y002665D02*
X029597Y002665D01*
X029606Y002636D02*
X029811Y002636D01*
X029810Y002608D02*
X029617Y002608D01*
X029630Y002579D02*
X029810Y002579D01*
X029810Y002551D02*
X029644Y002551D01*
X029657Y002522D02*
X029811Y002522D01*
X029814Y002494D02*
X029671Y002494D01*
X029684Y002465D02*
X029817Y002465D01*
X029820Y002436D02*
X029702Y002436D01*
X029523Y003133D02*
X029472Y003120D01*
X029422Y003103D01*
X029374Y003083D01*
X029327Y003060D01*
X029283Y003033D01*
X029282Y003033D02*
X029082Y002903D01*
X029089Y002922D02*
X028966Y002922D01*
X028954Y002950D02*
X029134Y002950D01*
X029180Y002979D02*
X028954Y002979D01*
X028962Y003007D02*
X029226Y003007D01*
X029271Y003036D02*
X028978Y003036D01*
X028997Y003064D02*
X029319Y003064D01*
X029378Y003093D02*
X029016Y003093D01*
X029035Y003121D02*
X029468Y003121D01*
X029083Y002903D02*
X029068Y002894D01*
X029051Y002889D01*
X029034Y002887D01*
X029016Y002889D01*
X029000Y002894D01*
X028985Y002903D01*
X028972Y002915D01*
X028962Y002929D01*
X028955Y002945D01*
X028951Y002962D01*
X028952Y002980D01*
X028955Y002997D01*
X028963Y003013D01*
X029020Y002893D02*
X029043Y002893D01*
X029721Y002408D02*
X029823Y002408D01*
X029826Y002379D02*
X029739Y002379D01*
X029758Y002351D02*
X029830Y002351D01*
X029833Y002322D02*
X029776Y002322D01*
X029797Y002294D02*
X029836Y002294D01*
X029839Y002265D02*
X029818Y002265D01*
X029839Y002237D02*
X029842Y002237D01*
X029862Y002223D02*
X030082Y002223D01*
X030176Y002221D01*
X030268Y002205D01*
X030356Y002174D01*
X030438Y002128D01*
X030511Y002070D01*
X030574Y002001D01*
X030625Y001922D01*
X030662Y001837D01*
X029446Y001837D01*
X029446Y001834D02*
X029453Y001767D01*
X029472Y001703D01*
X029502Y001643D01*
X029506Y001642D01*
X029509Y001640D01*
X029512Y001637D01*
X029512Y001633D01*
X030672Y001633D01*
X030674Y001640D01*
X030678Y001647D01*
X030685Y001651D01*
X030692Y001653D01*
X030685Y001746D01*
X030662Y001837D01*
X030669Y001808D02*
X029448Y001808D01*
X029446Y001834D02*
X029452Y001901D01*
X029470Y001966D01*
X029501Y002026D01*
X029541Y002080D01*
X029592Y002125D01*
X029649Y002159D01*
X029712Y002183D01*
X029862Y002223D01*
X029807Y002208D02*
X030250Y002208D01*
X030339Y002180D02*
X029704Y002180D01*
X029635Y002151D02*
X030397Y002151D01*
X030445Y002122D02*
X029589Y002122D01*
X029557Y002094D02*
X030481Y002094D01*
X030516Y002065D02*
X029530Y002065D01*
X029509Y002037D02*
X030541Y002037D01*
X030567Y002008D02*
X029492Y002008D01*
X029477Y001980D02*
X030588Y001980D01*
X030606Y001951D02*
X029466Y001951D01*
X029458Y001923D02*
X030625Y001923D01*
X030637Y001894D02*
X029451Y001894D01*
X029449Y001866D02*
X030649Y001866D01*
X030676Y001780D02*
X029451Y001780D01*
X029457Y001751D02*
X030683Y001751D01*
X030687Y001723D02*
X029466Y001723D01*
X029476Y001694D02*
X030689Y001694D01*
X030691Y001666D02*
X029491Y001666D01*
X029511Y001637D02*
X030673Y001637D01*
X031062Y001653D02*
X031070Y001746D01*
X031093Y001837D01*
X032309Y001837D01*
X032309Y001834D02*
X032302Y001767D01*
X032283Y001703D01*
X032252Y001643D01*
X032252Y001639D01*
X032249Y001636D01*
X032246Y001634D01*
X032242Y001633D01*
X031082Y001633D01*
X031075Y001634D01*
X031068Y001639D01*
X031064Y001645D01*
X031062Y001653D01*
X031063Y001666D02*
X032264Y001666D01*
X032250Y001637D02*
X031070Y001637D01*
X031066Y001694D02*
X032279Y001694D01*
X032289Y001723D02*
X031068Y001723D01*
X031071Y001751D02*
X032298Y001751D01*
X032303Y001780D02*
X031079Y001780D01*
X031086Y001808D02*
X032306Y001808D01*
X032309Y001834D02*
X032303Y001901D01*
X032284Y001966D01*
X032254Y002026D01*
X032213Y002080D01*
X032163Y002125D01*
X032106Y002159D01*
X032042Y002183D01*
X031892Y002223D01*
X031672Y002223D01*
X031579Y002221D01*
X031487Y002205D01*
X031399Y002174D01*
X031317Y002128D01*
X031244Y002070D01*
X031181Y002001D01*
X031130Y001922D01*
X031093Y001837D01*
X031105Y001866D02*
X032306Y001866D01*
X032303Y001894D02*
X031118Y001894D01*
X031130Y001923D02*
X032297Y001923D01*
X032289Y001951D02*
X031149Y001951D01*
X031167Y001980D02*
X032278Y001980D01*
X032263Y002008D02*
X031187Y002008D01*
X031213Y002037D02*
X032246Y002037D01*
X032224Y002065D02*
X031239Y002065D01*
X031274Y002094D02*
X032198Y002094D01*
X032166Y002122D02*
X031310Y002122D01*
X031358Y002151D02*
X032119Y002151D01*
X032051Y002180D02*
X031416Y002180D01*
X031505Y002208D02*
X031947Y002208D01*
X031901Y002237D02*
X031892Y002237D01*
X031904Y002265D02*
X031924Y002265D01*
X031916Y002294D02*
X031946Y002294D01*
X031928Y002322D02*
X031969Y002322D01*
X031988Y002351D02*
X031938Y002351D01*
X031947Y002379D02*
X032006Y002379D01*
X032023Y002408D02*
X031950Y002408D01*
X031952Y002436D02*
X032041Y002436D01*
X032059Y002465D02*
X031952Y002465D01*
X031952Y002494D02*
X032072Y002494D01*
X032085Y002522D02*
X031952Y002522D01*
X031952Y002551D02*
X032098Y002551D01*
X032111Y002579D02*
X031952Y002579D01*
X031952Y002608D02*
X032124Y002608D01*
X032134Y002636D02*
X031952Y002636D01*
X031952Y002665D02*
X032143Y002665D01*
X032153Y002693D02*
X031952Y002693D01*
X031951Y002722D02*
X032162Y002722D01*
X032171Y002750D02*
X031950Y002750D01*
X031948Y002779D02*
X032177Y002779D01*
X032183Y002807D02*
X031947Y002807D01*
X031945Y002836D02*
X032189Y002836D01*
X032195Y002865D02*
X031944Y002865D01*
X031942Y002893D02*
X032200Y002893D01*
X032205Y002922D02*
X031937Y002922D01*
X031933Y002950D02*
X032209Y002950D01*
X032213Y002979D02*
X031928Y002979D01*
X031923Y003007D02*
X032217Y003007D01*
X032221Y003036D02*
X031919Y003036D01*
X031914Y003064D02*
X032222Y003064D01*
X032222Y003093D02*
X031907Y003093D01*
X031899Y003121D02*
X032222Y003121D01*
X032222Y003103D02*
X032222Y003143D01*
X032262Y003133D01*
X032241Y003150D02*
X032704Y003150D01*
X032723Y003121D02*
X032368Y003121D01*
X032436Y003093D02*
X032742Y003093D01*
X032732Y003113D02*
X032782Y003033D01*
X032780Y003036D02*
X032530Y003036D01*
X032565Y003007D02*
X032799Y003007D01*
X032802Y002979D02*
X032595Y002979D01*
X032626Y002950D02*
X032798Y002950D01*
X032781Y002922D02*
X032767Y002910D01*
X032749Y002903D01*
X032731Y002901D01*
X032712Y002903D01*
X032675Y002916D01*
X032792Y002933D02*
X032801Y002947D01*
X032806Y002961D01*
X032808Y002977D01*
X032806Y002993D01*
X032801Y003008D01*
X032793Y003022D01*
X032782Y003033D01*
X032761Y003064D02*
X032489Y003064D01*
X032684Y003179D02*
X031884Y003179D01*
X031876Y003207D02*
X032665Y003207D01*
X032640Y003236D02*
X031868Y003236D01*
X031859Y003264D02*
X032613Y003264D01*
X032586Y003293D02*
X031848Y003293D01*
X031837Y003321D02*
X032549Y003321D01*
X032512Y003350D02*
X031825Y003350D01*
X031814Y003378D02*
X032465Y003378D01*
X032413Y003407D02*
X031803Y003407D01*
X031791Y003435D02*
X032361Y003435D01*
X032323Y003464D02*
X031776Y003464D01*
X031760Y003493D02*
X032294Y003493D01*
X032268Y003521D02*
X031745Y003521D01*
X031728Y003550D02*
X032241Y003550D01*
X032215Y003578D02*
X031708Y003578D01*
X031687Y003607D02*
X032195Y003607D01*
X032175Y003635D02*
X031666Y003635D01*
X031642Y003664D02*
X032155Y003664D01*
X032135Y003692D02*
X031615Y003692D01*
X031589Y003721D02*
X032120Y003721D01*
X032105Y003749D02*
X031558Y003749D01*
X031524Y003778D02*
X032090Y003778D01*
X032076Y003806D02*
X031489Y003806D01*
X031448Y003835D02*
X032063Y003835D01*
X032053Y003864D02*
X031403Y003864D01*
X031396Y003892D02*
X032043Y003892D01*
X032033Y003921D02*
X031457Y003921D01*
X031499Y003949D02*
X032023Y003949D01*
X032016Y003978D02*
X031531Y003978D01*
X031555Y004006D02*
X032010Y004006D01*
X032004Y004035D02*
X031573Y004035D01*
X031589Y004063D02*
X031999Y004063D01*
X031993Y004092D02*
X031599Y004092D01*
X031608Y004120D02*
X031990Y004120D01*
X031988Y004149D02*
X031612Y004149D01*
X031615Y004178D02*
X031986Y004178D01*
X031985Y004206D02*
X031614Y004206D01*
X031612Y004235D02*
X031983Y004235D01*
X031981Y004263D02*
X031606Y004263D01*
X031582Y004349D02*
X031977Y004349D01*
X031976Y004377D02*
X031572Y004377D01*
X031561Y004406D02*
X031971Y004406D01*
X031967Y004434D02*
X031544Y004434D01*
X031524Y004463D02*
X031962Y004463D01*
X031957Y004492D02*
X031498Y004492D01*
X031461Y004520D02*
X031682Y004520D01*
X031642Y004549D02*
X031406Y004549D01*
X030842Y004333D02*
X030852Y004308D01*
X030862Y004283D01*
X030857Y004280D02*
X030861Y004272D01*
X030862Y004263D01*
X030783Y004263D01*
X030782Y004263D02*
X030832Y004293D01*
X030842Y004291D01*
X030850Y004287D01*
X030857Y004280D01*
X030872Y004283D02*
X030862Y004363D01*
X030865Y004377D02*
X030954Y004377D01*
X030937Y004349D02*
X030868Y004349D01*
X030871Y004320D02*
X030921Y004320D01*
X030909Y004292D02*
X030872Y004292D01*
X030872Y004263D02*
X030903Y004263D01*
X030901Y004235D02*
X030872Y004235D01*
X030862Y004235D02*
X030658Y004235D01*
X030658Y004244D02*
X030671Y004288D01*
X030693Y004328D01*
X030722Y004363D01*
X030752Y004383D01*
X030762Y004383D02*
X030772Y004383D01*
X030731Y004349D02*
X030710Y004349D01*
X030722Y004363D02*
X030782Y004263D01*
X030664Y004263D01*
X030658Y004244D02*
X030655Y004199D01*
X030662Y004154D01*
X030678Y004111D01*
X030702Y004073D01*
X030716Y004060D01*
X030734Y004052D01*
X030752Y004049D01*
X030771Y004052D01*
X030788Y004060D01*
X030802Y004073D01*
X030828Y004111D01*
X030847Y004153D01*
X030858Y004197D01*
X030862Y004243D01*
X030862Y004263D01*
X030839Y004292D02*
X030831Y004292D01*
X030382Y005213D02*
X030328Y005188D01*
X030275Y005159D01*
X030224Y005128D01*
X030175Y005093D01*
X030128Y005056D01*
X030084Y005016D01*
X030042Y004974D01*
X030002Y004929D01*
X029966Y004881D01*
X029932Y004832D01*
X029901Y004780D01*
X029873Y004727D01*
X029848Y004673D01*
X029827Y004617D01*
X029809Y004559D01*
X029795Y004501D01*
X029784Y004442D01*
X029776Y004383D01*
X029773Y004323D01*
X029776Y004320D02*
X030130Y004320D01*
X030129Y004292D02*
X029773Y004292D01*
X029771Y004263D02*
X030131Y004263D01*
X030135Y004235D02*
X029769Y004235D01*
X029767Y004206D02*
X030138Y004206D01*
X030141Y004178D02*
X029765Y004178D01*
X029763Y004149D02*
X030147Y004149D01*
X030155Y004120D02*
X029759Y004120D01*
X029754Y004092D02*
X030163Y004092D01*
X030171Y004063D02*
X029749Y004063D01*
X029744Y004035D02*
X030182Y004035D01*
X030194Y004006D02*
X029738Y004006D01*
X029730Y003978D02*
X030207Y003978D01*
X030219Y003949D02*
X029722Y003949D01*
X029714Y003921D02*
X030238Y003921D01*
X030263Y003892D02*
X029705Y003892D01*
X029694Y003864D02*
X030303Y003864D01*
X030310Y003835D02*
X029683Y003835D01*
X029672Y003806D02*
X030275Y003806D01*
X030239Y003778D02*
X029660Y003778D01*
X029647Y003749D02*
X030207Y003749D01*
X030176Y003721D02*
X029634Y003721D01*
X029621Y003692D02*
X030145Y003692D01*
X030173Y004063D02*
X030184Y004029D01*
X030200Y003997D01*
X030218Y003966D01*
X030240Y003937D01*
X030264Y003911D01*
X030291Y003887D01*
X030321Y003867D01*
X030352Y003849D01*
X030385Y003835D01*
X030419Y003825D01*
X030455Y003818D01*
X030491Y003815D01*
X030526Y003816D01*
X030562Y003821D01*
X030597Y003829D01*
X030631Y003841D01*
X030663Y003856D01*
X030694Y003875D01*
X030722Y003897D01*
X030748Y003921D01*
X030772Y003949D01*
X030792Y003978D01*
X030809Y004010D01*
X030823Y004043D01*
X030823Y004035D02*
X030961Y004035D01*
X030962Y004033D02*
X030822Y004033D01*
X030852Y004093D01*
X030866Y004128D01*
X030870Y004149D02*
X030918Y004149D01*
X030911Y004178D02*
X030873Y004178D01*
X030853Y004178D02*
X030658Y004178D01*
X030656Y004206D02*
X030859Y004206D01*
X030872Y004206D02*
X030904Y004206D01*
X031102Y004243D02*
X031095Y004267D01*
X031086Y004291D01*
X031073Y004313D01*
X031059Y004334D01*
X031042Y004353D01*
X031033Y004359D01*
X031022Y004363D01*
X031012Y004363D01*
X031001Y004359D01*
X030992Y004353D01*
X030972Y004333D01*
X030952Y004299D01*
X030940Y004262D01*
X030935Y004223D01*
X030940Y004184D01*
X030952Y004146D01*
X030972Y004113D01*
X030952Y004143D01*
X030964Y004124D01*
X030979Y004108D01*
X030999Y004098D01*
X031020Y004092D01*
X031042Y004093D01*
X031062Y004103D01*
X031079Y004116D01*
X031092Y004133D01*
X031102Y004153D01*
X031110Y004175D01*
X031113Y004198D01*
X031110Y004221D01*
X031102Y004243D01*
X031082Y004273D01*
X031022Y004243D01*
X030972Y004333D01*
X030965Y004320D02*
X030979Y004320D01*
X030142Y004383D02*
X030139Y004329D01*
X030138Y004275D01*
X030142Y004221D01*
X030148Y004168D01*
X030159Y004115D01*
X030172Y004063D01*
X030664Y004149D02*
X030845Y004149D01*
X030832Y004120D02*
X030674Y004120D01*
X030690Y004092D02*
X030815Y004092D01*
X030838Y004063D02*
X030949Y004063D01*
X030937Y004092D02*
X030852Y004092D01*
X030792Y004063D02*
X030713Y004063D01*
X030382Y005213D02*
X030446Y005238D01*
X030512Y005260D01*
X030579Y005278D01*
X030646Y005293D01*
X030715Y005304D01*
X030783Y005312D01*
X030852Y005316D01*
X030922Y005316D01*
X030991Y005312D01*
X031059Y005304D01*
X031128Y005293D01*
X031195Y005278D01*
X031262Y005260D01*
X031328Y005238D01*
X031392Y005213D01*
X031366Y005205D02*
X031348Y005205D01*
X031404Y005177D02*
X031460Y005177D01*
X031446Y005148D02*
X031512Y005148D01*
X031486Y005119D02*
X031550Y005119D01*
X031515Y005091D02*
X031588Y005091D01*
X031626Y005062D02*
X031544Y005062D01*
X031568Y005034D02*
X031662Y005034D01*
X031694Y005005D02*
X031588Y005005D01*
X031609Y004977D02*
X031725Y004977D01*
X031751Y004948D02*
X031624Y004948D01*
X031639Y004920D02*
X031774Y004920D01*
X031797Y004891D02*
X031653Y004891D01*
X031663Y004863D02*
X031816Y004863D01*
X031833Y004834D02*
X031672Y004834D01*
X031679Y004806D02*
X031849Y004806D01*
X031865Y004777D02*
X031685Y004777D01*
X031689Y004748D02*
X031876Y004748D01*
X031888Y004720D02*
X031691Y004720D01*
X031692Y004691D02*
X031900Y004691D01*
X031602Y004577D02*
X030957Y004577D01*
X030942Y004563D02*
X030982Y004603D01*
X030985Y004606D02*
X031551Y004606D01*
X031498Y004634D02*
X031018Y004634D01*
X031060Y004663D02*
X031424Y004663D01*
X031328Y004691D02*
X031124Y004691D01*
X031273Y005223D02*
X031317Y005207D01*
X031361Y005188D01*
X031402Y005165D01*
X031442Y005139D01*
X031480Y005111D01*
X031515Y005079D01*
X031547Y005044D01*
X031577Y005007D01*
X031603Y004968D01*
X031627Y004927D01*
X031647Y004884D01*
X031663Y004839D01*
X031676Y004794D01*
X031685Y004747D01*
X031691Y004700D01*
X031693Y004653D01*
X031292Y004702D02*
X031259Y004706D01*
X031225Y004707D01*
X031191Y004704D01*
X031158Y004699D01*
X031125Y004690D01*
X031094Y004678D01*
X031063Y004663D01*
X031035Y004645D01*
X031008Y004625D01*
X030983Y004602D01*
X030935Y004577D02*
X030763Y004577D01*
X030082Y004653D02*
X030088Y004703D01*
X030098Y004752D01*
X030111Y004800D01*
X030128Y004847D01*
X030147Y004892D01*
X030171Y004937D01*
X030197Y004979D01*
X030226Y005019D01*
X030259Y005057D01*
X030294Y005093D01*
X030331Y005126D01*
X030371Y005156D01*
X030413Y005183D01*
X030412Y005183D02*
X030462Y005213D01*
X030461Y005234D02*
X030447Y005234D01*
X030424Y005205D02*
X030368Y005205D01*
X030387Y005177D02*
X030307Y005177D01*
X030351Y005148D02*
X030255Y005148D01*
X030207Y005119D02*
X030314Y005119D01*
X030279Y005091D02*
X030171Y005091D01*
X030134Y005062D02*
X030248Y005062D01*
X030220Y005034D02*
X030100Y005034D01*
X030073Y005005D02*
X030197Y005005D01*
X030175Y004977D02*
X030046Y004977D01*
X030020Y004948D02*
X030159Y004948D01*
X030143Y004920D02*
X029998Y004920D01*
X029979Y004891D02*
X030129Y004891D01*
X030118Y004863D02*
X029959Y004863D01*
X029940Y004834D02*
X030107Y004834D01*
X030100Y004806D02*
X029923Y004806D01*
X029908Y004777D02*
X030094Y004777D01*
X030088Y004748D02*
X029893Y004748D01*
X029878Y004720D02*
X030085Y004720D01*
X030084Y004691D02*
X029863Y004691D01*
X029823Y004606D02*
X030232Y004606D01*
X030258Y004631D02*
X030314Y004667D01*
X030377Y004691D01*
X030308Y004663D02*
X030096Y004663D01*
X030179Y004720D02*
X030835Y004720D01*
X030863Y004691D02*
X030565Y004691D01*
X030646Y004663D02*
X030884Y004663D01*
X030905Y004634D02*
X030694Y004634D01*
X030732Y004606D02*
X030920Y004606D01*
X030807Y004520D02*
X031059Y004520D01*
X031023Y004492D02*
X030824Y004492D01*
X030838Y004463D02*
X031003Y004463D01*
X030986Y004434D02*
X030849Y004434D01*
X030857Y004406D02*
X030970Y004406D01*
X031392Y005213D02*
X031446Y005188D01*
X031498Y005159D01*
X031549Y005128D01*
X031597Y005093D01*
X031644Y005056D01*
X031688Y005016D01*
X031729Y004973D01*
X031768Y004928D01*
X031803Y004881D01*
X031836Y004831D01*
X031866Y004780D01*
X031893Y004726D01*
X031916Y004672D01*
X031936Y004616D01*
X031952Y004558D01*
X031965Y004500D01*
X031974Y004442D01*
X031980Y004382D01*
X031982Y004323D01*
X030922Y004213D02*
X030924Y004250D01*
X030930Y004286D01*
X030940Y004322D01*
X030953Y004356D01*
X030971Y004388D01*
X030991Y004419D01*
X031015Y004447D01*
X031042Y004472D01*
X031071Y004494D01*
X031103Y004513D01*
X031136Y004529D01*
X031171Y004541D01*
X031207Y004549D01*
X031244Y004553D01*
X031280Y004553D01*
X031317Y004549D01*
X031353Y004541D01*
X031388Y004529D01*
X031421Y004513D01*
X031453Y004494D01*
X031482Y004472D01*
X031509Y004447D01*
X031533Y004419D01*
X031553Y004388D01*
X031571Y004356D01*
X031584Y004322D01*
X031594Y004286D01*
X031600Y004250D01*
X031602Y004213D01*
X031600Y004176D01*
X031594Y004140D01*
X031584Y004104D01*
X031571Y004070D01*
X031553Y004038D01*
X031533Y004007D01*
X031509Y003979D01*
X031482Y003954D01*
X031453Y003932D01*
X031421Y003913D01*
X031388Y003897D01*
X031353Y003885D01*
X031317Y003877D01*
X031280Y003873D01*
X031244Y003873D01*
X031207Y003877D01*
X031171Y003885D01*
X031136Y003897D01*
X031103Y003913D01*
X031071Y003932D01*
X031042Y003954D01*
X031015Y003979D01*
X030991Y004007D01*
X030971Y004038D01*
X030953Y004070D01*
X030940Y004104D01*
X030930Y004140D01*
X030924Y004176D01*
X030922Y004213D01*
X030937Y004206D02*
X031112Y004206D01*
X031111Y004178D02*
X030942Y004178D01*
X030951Y004149D02*
X031100Y004149D01*
X031082Y004120D02*
X030968Y004120D01*
X030967Y004120D02*
X030967Y004120D01*
X030925Y004120D02*
X030962Y004033D01*
X031273Y005223D02*
X031206Y005242D01*
X031140Y005257D01*
X031072Y005268D01*
X031004Y005276D01*
X030935Y005281D01*
X030867Y005282D01*
X030798Y005279D01*
X030730Y005273D01*
X030662Y005263D01*
X030595Y005250D01*
X030528Y005233D01*
X030463Y005213D01*
X030509Y004863D02*
X030514Y004863D01*
X030655Y004834D02*
X030368Y004834D01*
X030315Y004806D02*
X030719Y004806D01*
X030766Y004777D02*
X030270Y004777D01*
X030225Y004748D02*
X030805Y004748D01*
X030786Y004549D02*
X031136Y004549D01*
X030995Y004292D02*
X030950Y004292D01*
X030940Y004263D02*
X031011Y004263D01*
X031063Y004263D02*
X031089Y004263D01*
X031105Y004235D02*
X030937Y004235D01*
X030842Y004333D02*
X030836Y004347D01*
X030826Y004359D01*
X030815Y004369D01*
X030802Y004377D01*
X030787Y004381D01*
X030772Y004383D01*
X030748Y004320D02*
X030688Y004320D01*
X030673Y004292D02*
X030765Y004292D01*
X030553Y004863D02*
X030511Y004864D01*
X030469Y004861D01*
X030427Y004855D01*
X030387Y004845D01*
X030347Y004831D01*
X030309Y004813D01*
X030272Y004793D01*
X030205Y004577D02*
X029812Y004577D01*
X029804Y004549D02*
X030185Y004549D01*
X030168Y004520D02*
X029797Y004520D01*
X029791Y004492D02*
X030156Y004492D01*
X030145Y004463D02*
X029788Y004463D01*
X029785Y004434D02*
X030139Y004434D01*
X030133Y004406D02*
X029782Y004406D01*
X029780Y004377D02*
X030132Y004377D01*
X030131Y004349D02*
X029778Y004349D01*
X030822Y004042D02*
X030838Y004087D01*
X030850Y004133D01*
X030860Y004179D01*
X030868Y004225D01*
X030872Y004273D01*
X030942Y004563D02*
X030927Y004600D01*
X030909Y004636D01*
X030888Y004670D01*
X030864Y004701D01*
X030837Y004731D01*
X030807Y004758D01*
X030776Y004783D01*
X030742Y004804D01*
X030706Y004823D01*
X030669Y004838D01*
X030631Y004850D01*
X030592Y004858D01*
X030552Y004863D01*
X030293Y004642D02*
X030265Y004622D01*
X030239Y004598D01*
X030216Y004573D01*
X030196Y004545D01*
X030179Y004515D01*
X030165Y004483D01*
X030154Y004450D01*
X030147Y004417D01*
X030143Y004382D01*
X030292Y004643D02*
X030325Y004661D01*
X030360Y004675D01*
X030396Y004685D01*
X030433Y004692D01*
X030470Y004696D01*
X030508Y004695D01*
X030545Y004691D01*
X030582Y004683D01*
X030618Y004672D01*
X030653Y004657D01*
X030685Y004639D01*
X030716Y004617D01*
X030745Y004593D01*
X030771Y004566D01*
X030794Y004537D01*
X030815Y004505D01*
X030832Y004471D01*
X030845Y004436D01*
X030856Y004400D01*
X030862Y004363D01*
X031293Y004703D02*
X031348Y004692D01*
X031402Y004677D01*
X031455Y004658D01*
X031506Y004636D01*
X031556Y004610D01*
X031604Y004581D01*
X031649Y004548D01*
X031693Y004513D01*
X031272Y005234D02*
X031270Y005234D01*
X032112Y003733D02*
X032134Y003688D01*
X032159Y003646D01*
X032188Y003605D01*
X032219Y003566D01*
X032253Y003530D01*
X032289Y003497D01*
X032328Y003466D01*
X032369Y003438D01*
X032412Y003413D01*
X032222Y003150D02*
X031892Y003150D01*
X032412Y003413D02*
X032460Y003385D01*
X032506Y003354D01*
X032550Y003320D01*
X032591Y003283D01*
X032631Y003244D01*
X032667Y003203D01*
X032701Y003159D01*
X032732Y003113D01*
X032793Y002932D02*
X032780Y002919D01*
X032764Y002908D01*
X032747Y002900D01*
X032729Y002895D01*
X032710Y002894D01*
X032692Y002896D01*
X032674Y002902D01*
X032657Y002911D01*
X032642Y002922D01*
X032642Y002923D02*
X032601Y002959D01*
X032558Y002993D01*
X032513Y003024D01*
X032466Y003053D01*
X032417Y003078D01*
X032366Y003099D01*
X032315Y003118D01*
X032262Y003133D01*
X030273Y004792D02*
X030225Y004760D01*
X030178Y004727D01*
X030133Y004692D01*
X029612Y003683D02*
X029577Y003635D01*
X029540Y003589D01*
X029499Y003546D01*
X029456Y003505D01*
X029410Y003468D01*
X029362Y003433D01*
X029363Y003433D02*
X029310Y003395D01*
X029259Y003355D01*
X029209Y003313D01*
X029162Y003268D01*
X029117Y003221D01*
X029075Y003172D01*
X029035Y003121D01*
X028998Y003068D01*
X028963Y003013D01*
X032112Y003733D02*
X032085Y003795D01*
X032062Y003858D01*
X032041Y003923D01*
X032023Y003988D01*
X032009Y004054D01*
X031997Y004121D01*
X031989Y004188D01*
X031984Y004255D01*
X031982Y004323D01*
D14*
X024802Y006353D02*
X024402Y006353D01*
X024052Y006353D02*
X023902Y006353D01*
X020702Y006353D02*
X020552Y006353D01*
X020202Y006353D02*
X019802Y006353D01*
X017802Y006353D02*
X017402Y006353D01*
X017052Y006353D02*
X016902Y006353D01*
X013702Y006353D02*
X013552Y006353D01*
X013202Y006353D02*
X012802Y006353D01*
X011302Y008853D02*
X011302Y009253D01*
X015302Y009253D02*
X015302Y008853D01*
X015302Y012453D02*
X015302Y012853D01*
X011302Y012853D02*
X011302Y012453D01*
X011302Y016353D02*
X011702Y016353D01*
X014902Y016353D02*
X015302Y016353D01*
X030302Y012353D02*
X030702Y012353D01*
X030702Y011353D02*
X030302Y011353D01*
X030302Y010353D02*
X030702Y010353D01*
X030702Y009353D02*
X030302Y009353D01*
X033902Y009353D02*
X034302Y009353D01*
X034302Y010353D02*
X033902Y010353D01*
X033902Y011353D02*
X034302Y011353D01*
X034302Y012353D02*
X033902Y012353D01*
D15*
X033552Y012003D02*
X033552Y012703D01*
X033550Y012720D01*
X033546Y012737D01*
X033539Y012753D01*
X033529Y012767D01*
X033516Y012780D01*
X033502Y012790D01*
X033486Y012797D01*
X033469Y012801D01*
X033452Y012803D01*
X033302Y012803D01*
X033252Y012753D01*
X031352Y012753D01*
X031302Y012803D01*
X031152Y012803D01*
X031135Y012801D01*
X031118Y012797D01*
X031102Y012790D01*
X031088Y012780D01*
X031075Y012767D01*
X031065Y012753D01*
X031058Y012737D01*
X031054Y012720D01*
X031052Y012703D01*
X031052Y012003D01*
X031054Y011986D01*
X031058Y011969D01*
X031065Y011953D01*
X031075Y011939D01*
X031088Y011926D01*
X031102Y011916D01*
X031118Y011909D01*
X031135Y011905D01*
X031152Y011903D01*
X031302Y011903D01*
X031352Y011953D01*
X033252Y011953D01*
X033302Y011903D01*
X033452Y011903D01*
X033469Y011905D01*
X033486Y011909D01*
X033502Y011916D01*
X033516Y011926D01*
X033529Y011939D01*
X033539Y011953D01*
X033546Y011969D01*
X033550Y011986D01*
X033552Y012003D01*
X033452Y011803D02*
X033302Y011803D01*
X033252Y011753D01*
X031352Y011753D01*
X031302Y011803D01*
X031152Y011803D01*
X031135Y011801D01*
X031118Y011797D01*
X031102Y011790D01*
X031088Y011780D01*
X031075Y011767D01*
X031065Y011753D01*
X031058Y011737D01*
X031054Y011720D01*
X031052Y011703D01*
X031052Y011003D01*
X031054Y010986D01*
X031058Y010969D01*
X031065Y010953D01*
X031075Y010939D01*
X031088Y010926D01*
X031102Y010916D01*
X031118Y010909D01*
X031135Y010905D01*
X031152Y010903D01*
X031302Y010903D01*
X031352Y010953D01*
X033252Y010953D01*
X033302Y010903D01*
X033452Y010903D01*
X033469Y010905D01*
X033486Y010909D01*
X033502Y010916D01*
X033516Y010926D01*
X033529Y010939D01*
X033539Y010953D01*
X033546Y010969D01*
X033550Y010986D01*
X033552Y011003D01*
X033552Y011703D01*
X033550Y011720D01*
X033546Y011737D01*
X033539Y011753D01*
X033529Y011767D01*
X033516Y011780D01*
X033502Y011790D01*
X033486Y011797D01*
X033469Y011801D01*
X033452Y011803D01*
X033452Y010803D02*
X033302Y010803D01*
X033252Y010753D01*
X031352Y010753D01*
X031302Y010803D01*
X031152Y010803D01*
X031135Y010801D01*
X031118Y010797D01*
X031102Y010790D01*
X031088Y010780D01*
X031075Y010767D01*
X031065Y010753D01*
X031058Y010737D01*
X031054Y010720D01*
X031052Y010703D01*
X031052Y010003D01*
X031054Y009986D01*
X031058Y009969D01*
X031065Y009953D01*
X031075Y009939D01*
X031088Y009926D01*
X031102Y009916D01*
X031118Y009909D01*
X031135Y009905D01*
X031152Y009903D01*
X031302Y009903D01*
X031352Y009953D01*
X033252Y009953D01*
X033302Y009903D01*
X033452Y009903D01*
X033469Y009905D01*
X033486Y009909D01*
X033502Y009916D01*
X033516Y009926D01*
X033529Y009939D01*
X033539Y009953D01*
X033546Y009969D01*
X033550Y009986D01*
X033552Y010003D01*
X033552Y010703D01*
X033550Y010720D01*
X033546Y010737D01*
X033539Y010753D01*
X033529Y010767D01*
X033516Y010780D01*
X033502Y010790D01*
X033486Y010797D01*
X033469Y010801D01*
X033452Y010803D01*
X033452Y009803D02*
X033302Y009803D01*
X033252Y009753D01*
X031352Y009753D01*
X031302Y009803D01*
X031152Y009803D01*
X031135Y009801D01*
X031118Y009797D01*
X031102Y009790D01*
X031088Y009780D01*
X031075Y009767D01*
X031065Y009753D01*
X031058Y009737D01*
X031054Y009720D01*
X031052Y009703D01*
X031052Y009003D01*
X031054Y008986D01*
X031058Y008969D01*
X031065Y008953D01*
X031075Y008939D01*
X031088Y008926D01*
X031102Y008916D01*
X031118Y008909D01*
X031135Y008905D01*
X031152Y008903D01*
X031302Y008903D01*
X031352Y008953D01*
X033252Y008953D01*
X033302Y008903D01*
X033452Y008903D01*
X033469Y008905D01*
X033486Y008909D01*
X033502Y008916D01*
X033516Y008926D01*
X033529Y008939D01*
X033539Y008953D01*
X033546Y008969D01*
X033550Y008986D01*
X033552Y009003D01*
X033552Y009703D01*
X033550Y009720D01*
X033546Y009737D01*
X033539Y009753D01*
X033529Y009767D01*
X033516Y009780D01*
X033502Y009790D01*
X033486Y009797D01*
X033469Y009801D01*
X033452Y009803D01*
X028252Y010353D02*
X028252Y008253D01*
X016352Y008253D01*
X016352Y013453D01*
X028252Y013453D01*
X028252Y011353D01*
X028208Y011351D01*
X028165Y011345D01*
X028123Y011336D01*
X028081Y011323D01*
X028041Y011306D01*
X028002Y011286D01*
X027965Y011263D01*
X027931Y011236D01*
X027898Y011207D01*
X027869Y011174D01*
X027842Y011140D01*
X027819Y011103D01*
X027799Y011064D01*
X027782Y011024D01*
X027769Y010982D01*
X027760Y010940D01*
X027754Y010897D01*
X027752Y010853D01*
X027754Y010809D01*
X027760Y010766D01*
X027769Y010724D01*
X027782Y010682D01*
X027799Y010642D01*
X027819Y010603D01*
X027842Y010566D01*
X027869Y010532D01*
X027898Y010499D01*
X027931Y010470D01*
X027965Y010443D01*
X028002Y010420D01*
X028041Y010400D01*
X028081Y010383D01*
X028123Y010370D01*
X028165Y010361D01*
X028208Y010355D01*
X028252Y010353D01*
X023452Y006803D02*
X023302Y006803D01*
X023252Y006753D01*
X021352Y006753D01*
X021302Y006803D01*
X021152Y006803D01*
X021135Y006801D01*
X021118Y006797D01*
X021102Y006790D01*
X021088Y006780D01*
X021075Y006767D01*
X021065Y006753D01*
X021058Y006737D01*
X021054Y006720D01*
X021052Y006703D01*
X021052Y006003D01*
X021054Y005986D01*
X021058Y005969D01*
X021065Y005953D01*
X021075Y005939D01*
X021088Y005926D01*
X021102Y005916D01*
X021118Y005909D01*
X021135Y005905D01*
X021152Y005903D01*
X021302Y005903D01*
X021352Y005953D01*
X023252Y005953D01*
X023302Y005903D01*
X023452Y005903D01*
X023469Y005905D01*
X023486Y005909D01*
X023502Y005916D01*
X023516Y005926D01*
X023529Y005939D01*
X023539Y005953D01*
X023546Y005969D01*
X023550Y005986D01*
X023552Y006003D01*
X023552Y006703D01*
X023550Y006720D01*
X023546Y006737D01*
X023539Y006753D01*
X023529Y006767D01*
X023516Y006780D01*
X023502Y006790D01*
X023486Y006797D01*
X023469Y006801D01*
X023452Y006803D01*
X023552Y004853D02*
X024052Y004853D01*
X024302Y004603D01*
X024302Y004103D01*
X024052Y003853D01*
X023552Y003853D01*
X023302Y004103D01*
X023052Y003853D01*
X022552Y003853D01*
X022302Y004103D01*
X022052Y003853D01*
X021552Y003853D01*
X021302Y004103D01*
X021052Y003853D01*
X020552Y003853D01*
X020302Y004103D01*
X020052Y003853D01*
X019552Y003853D01*
X019302Y004103D01*
X019052Y003853D01*
X018552Y003853D01*
X018302Y004103D01*
X018052Y003853D01*
X017552Y003853D01*
X017302Y004103D01*
X017052Y003853D01*
X016552Y003853D01*
X016302Y004103D01*
X016052Y003853D01*
X015552Y003853D01*
X015302Y004103D01*
X015052Y003853D01*
X014552Y003853D01*
X014302Y004103D01*
X014052Y003853D01*
X013552Y003853D01*
X013302Y004103D01*
X013052Y003853D01*
X012552Y003853D01*
X012302Y004103D01*
X012052Y003853D01*
X011552Y003853D01*
X011302Y004103D01*
X011052Y003853D01*
X010552Y003853D01*
X010302Y004103D01*
X010302Y004603D01*
X010552Y004853D01*
X011052Y004853D01*
X011302Y004603D01*
X011552Y004853D01*
X012052Y004853D01*
X012302Y004603D01*
X012302Y004103D01*
X012302Y004603D02*
X012552Y004853D01*
X013052Y004853D01*
X013302Y004603D01*
X013552Y004853D01*
X014052Y004853D01*
X014302Y004603D01*
X014552Y004853D01*
X015052Y004853D01*
X015302Y004603D01*
X015302Y004103D01*
X015302Y004603D02*
X015552Y004853D01*
X016052Y004853D01*
X016302Y004603D01*
X016552Y004853D01*
X017052Y004853D01*
X017302Y004603D01*
X017552Y004853D01*
X018052Y004853D01*
X018302Y004603D01*
X018302Y004103D01*
X018302Y004603D02*
X018552Y004853D01*
X019052Y004853D01*
X019302Y004603D01*
X019552Y004853D01*
X020052Y004853D01*
X020302Y004603D01*
X020552Y004853D01*
X021052Y004853D01*
X021302Y004603D01*
X021302Y004103D01*
X021302Y004603D02*
X021552Y004853D01*
X022052Y004853D01*
X022302Y004603D01*
X022552Y004853D01*
X023052Y004853D01*
X023302Y004603D01*
X023552Y004853D01*
X023302Y004603D02*
X023302Y004103D01*
X022302Y004103D02*
X022302Y004603D01*
X020302Y004603D02*
X020302Y004103D01*
X019302Y004103D02*
X019302Y004603D01*
X017302Y004603D02*
X017302Y004103D01*
X016302Y004103D02*
X016302Y004603D01*
X014302Y004603D02*
X014302Y004103D01*
X013302Y004103D02*
X013302Y004603D01*
X011302Y004603D02*
X011302Y004103D01*
X008952Y004353D02*
X008652Y004353D01*
X008502Y004353D02*
X008504Y004387D01*
X008510Y004421D01*
X008519Y004454D01*
X008533Y004485D01*
X008550Y004515D01*
X008570Y004543D01*
X008593Y004568D01*
X008619Y004591D01*
X008647Y004610D01*
X008677Y004626D01*
X008709Y004638D01*
X008742Y004647D01*
X008776Y004652D01*
X008811Y004653D01*
X008845Y004650D01*
X008878Y004643D01*
X008911Y004633D01*
X008942Y004618D01*
X008971Y004601D01*
X008998Y004580D01*
X009023Y004556D01*
X009045Y004529D01*
X009063Y004501D01*
X009078Y004470D01*
X009090Y004438D01*
X009098Y004404D01*
X009102Y004370D01*
X009102Y004336D01*
X009098Y004302D01*
X009090Y004268D01*
X009078Y004236D01*
X009063Y004205D01*
X009045Y004177D01*
X009023Y004150D01*
X008998Y004126D01*
X008971Y004105D01*
X008942Y004088D01*
X008911Y004073D01*
X008878Y004063D01*
X008845Y004056D01*
X008811Y004053D01*
X008776Y004054D01*
X008742Y004059D01*
X008709Y004068D01*
X008677Y004080D01*
X008647Y004096D01*
X008619Y004115D01*
X008593Y004138D01*
X008570Y004163D01*
X008550Y004191D01*
X008533Y004221D01*
X008519Y004252D01*
X008510Y004285D01*
X008504Y004319D01*
X008502Y004353D01*
X008802Y004503D02*
X008802Y004203D01*
X007302Y005853D02*
X007304Y005897D01*
X007310Y005941D01*
X007320Y005984D01*
X007333Y006026D01*
X007350Y006067D01*
X007371Y006106D01*
X007395Y006143D01*
X007422Y006178D01*
X007452Y006210D01*
X007485Y006240D01*
X007521Y006266D01*
X007558Y006290D01*
X007598Y006309D01*
X007639Y006326D01*
X007682Y006338D01*
X007725Y006347D01*
X007769Y006352D01*
X007813Y006353D01*
X007857Y006350D01*
X007901Y006343D01*
X007944Y006332D01*
X007986Y006318D01*
X008026Y006300D01*
X008065Y006278D01*
X008101Y006254D01*
X008135Y006226D01*
X008167Y006195D01*
X008196Y006161D01*
X008222Y006125D01*
X008244Y006087D01*
X008263Y006047D01*
X008278Y006005D01*
X008290Y005963D01*
X008298Y005919D01*
X008302Y005875D01*
X008302Y005831D01*
X008298Y005787D01*
X008290Y005743D01*
X008278Y005701D01*
X008263Y005659D01*
X008244Y005619D01*
X008222Y005581D01*
X008196Y005545D01*
X008167Y005511D01*
X008135Y005480D01*
X008101Y005452D01*
X008065Y005428D01*
X008026Y005406D01*
X007986Y005388D01*
X007944Y005374D01*
X007901Y005363D01*
X007857Y005356D01*
X007813Y005353D01*
X007769Y005354D01*
X007725Y005359D01*
X007682Y005368D01*
X007639Y005380D01*
X007598Y005397D01*
X007558Y005416D01*
X007521Y005440D01*
X007485Y005466D01*
X007452Y005496D01*
X007422Y005528D01*
X007395Y005563D01*
X007371Y005600D01*
X007350Y005639D01*
X007333Y005680D01*
X007320Y005722D01*
X007310Y005765D01*
X007304Y005809D01*
X007302Y005853D01*
X005402Y005853D02*
X005405Y005971D01*
X005414Y006088D01*
X005428Y006205D01*
X005448Y006321D01*
X005474Y006436D01*
X005505Y006550D01*
X005542Y006662D01*
X005585Y006771D01*
X005632Y006879D01*
X005685Y006984D01*
X005743Y007087D01*
X005806Y007186D01*
X005874Y007283D01*
X005947Y007376D01*
X006024Y007465D01*
X006105Y007550D01*
X006190Y007631D01*
X006279Y007708D01*
X006372Y007781D01*
X006469Y007849D01*
X006568Y007912D01*
X006671Y007970D01*
X006776Y008023D01*
X006884Y008070D01*
X006993Y008113D01*
X007105Y008150D01*
X007219Y008181D01*
X007334Y008207D01*
X007450Y008227D01*
X007567Y008241D01*
X007684Y008250D01*
X007802Y008253D01*
X007920Y008250D01*
X008037Y008241D01*
X008154Y008227D01*
X008270Y008207D01*
X008385Y008181D01*
X008499Y008150D01*
X008611Y008113D01*
X008720Y008070D01*
X008828Y008023D01*
X008933Y007970D01*
X009036Y007912D01*
X009135Y007849D01*
X009232Y007781D01*
X009325Y007708D01*
X009414Y007631D01*
X009499Y007550D01*
X009580Y007465D01*
X009657Y007376D01*
X009730Y007283D01*
X009798Y007186D01*
X009861Y007087D01*
X009919Y006984D01*
X009972Y006879D01*
X010019Y006771D01*
X010062Y006662D01*
X010099Y006550D01*
X010130Y006436D01*
X010156Y006321D01*
X010176Y006205D01*
X010190Y006088D01*
X010199Y005971D01*
X010202Y005853D01*
X010199Y005735D01*
X010190Y005618D01*
X010176Y005501D01*
X010156Y005385D01*
X010130Y005270D01*
X010099Y005156D01*
X010062Y005044D01*
X010019Y004935D01*
X009972Y004827D01*
X009919Y004722D01*
X009861Y004619D01*
X009798Y004520D01*
X009730Y004423D01*
X009657Y004330D01*
X009580Y004241D01*
X009499Y004156D01*
X009414Y004075D01*
X009325Y003998D01*
X009232Y003925D01*
X009135Y003857D01*
X009036Y003794D01*
X008933Y003736D01*
X008828Y003683D01*
X008720Y003636D01*
X008611Y003593D01*
X008499Y003556D01*
X008385Y003525D01*
X008270Y003499D01*
X008154Y003479D01*
X008037Y003465D01*
X007920Y003456D01*
X007802Y003453D01*
X007684Y003456D01*
X007567Y003465D01*
X007450Y003479D01*
X007334Y003499D01*
X007219Y003525D01*
X007105Y003556D01*
X006993Y003593D01*
X006884Y003636D01*
X006776Y003683D01*
X006671Y003736D01*
X006568Y003794D01*
X006469Y003857D01*
X006372Y003925D01*
X006279Y003998D01*
X006190Y004075D01*
X006105Y004156D01*
X006024Y004241D01*
X005947Y004330D01*
X005874Y004423D01*
X005806Y004520D01*
X005743Y004619D01*
X005685Y004722D01*
X005632Y004827D01*
X005585Y004935D01*
X005542Y005044D01*
X005505Y005156D01*
X005474Y005270D01*
X005448Y005385D01*
X005428Y005501D01*
X005414Y005618D01*
X005405Y005735D01*
X005402Y005853D01*
X010852Y009703D02*
X010852Y009853D01*
X010902Y009903D01*
X010902Y011803D01*
X010852Y011853D01*
X010852Y012003D01*
X010854Y012020D01*
X010858Y012037D01*
X010865Y012053D01*
X010875Y012067D01*
X010888Y012080D01*
X010902Y012090D01*
X010918Y012097D01*
X010935Y012101D01*
X010952Y012103D01*
X011652Y012103D01*
X011669Y012101D01*
X011686Y012097D01*
X011702Y012090D01*
X011716Y012080D01*
X011729Y012067D01*
X011739Y012053D01*
X011746Y012037D01*
X011750Y012020D01*
X011752Y012003D01*
X011752Y011853D01*
X011702Y011803D01*
X011702Y009903D01*
X011752Y009853D01*
X011752Y009703D01*
X011750Y009686D01*
X011746Y009669D01*
X011739Y009653D01*
X011729Y009639D01*
X011716Y009626D01*
X011702Y009616D01*
X011686Y009609D01*
X011669Y009605D01*
X011652Y009603D01*
X010952Y009603D01*
X010935Y009605D01*
X010918Y009609D01*
X010902Y009616D01*
X010888Y009626D01*
X010875Y009639D01*
X010865Y009653D01*
X010858Y009669D01*
X010854Y009686D01*
X010852Y009703D01*
X014852Y009703D02*
X014852Y009853D01*
X014902Y009903D01*
X014902Y011803D01*
X014852Y011853D01*
X014852Y012003D01*
X014854Y012020D01*
X014858Y012037D01*
X014865Y012053D01*
X014875Y012067D01*
X014888Y012080D01*
X014902Y012090D01*
X014918Y012097D01*
X014935Y012101D01*
X014952Y012103D01*
X015652Y012103D01*
X015669Y012101D01*
X015686Y012097D01*
X015702Y012090D01*
X015716Y012080D01*
X015729Y012067D01*
X015739Y012053D01*
X015746Y012037D01*
X015750Y012020D01*
X015752Y012003D01*
X015752Y011853D01*
X015702Y011803D01*
X015702Y009903D01*
X015752Y009853D01*
X015752Y009703D01*
X015750Y009686D01*
X015746Y009669D01*
X015739Y009653D01*
X015729Y009639D01*
X015716Y009626D01*
X015702Y009616D01*
X015686Y009609D01*
X015669Y009605D01*
X015652Y009603D01*
X014952Y009603D01*
X014935Y009605D01*
X014918Y009609D01*
X014902Y009616D01*
X014888Y009626D01*
X014875Y009639D01*
X014865Y009653D01*
X014858Y009669D01*
X014854Y009686D01*
X014852Y009703D01*
X014302Y006803D02*
X014152Y006803D01*
X014135Y006801D01*
X014118Y006797D01*
X014102Y006790D01*
X014088Y006780D01*
X014075Y006767D01*
X014065Y006753D01*
X014058Y006737D01*
X014054Y006720D01*
X014052Y006703D01*
X014052Y006003D01*
X014054Y005986D01*
X014058Y005969D01*
X014065Y005953D01*
X014075Y005939D01*
X014088Y005926D01*
X014102Y005916D01*
X014118Y005909D01*
X014135Y005905D01*
X014152Y005903D01*
X014302Y005903D01*
X014352Y005953D01*
X016252Y005953D01*
X016302Y005903D01*
X016452Y005903D01*
X016469Y005905D01*
X016486Y005909D01*
X016502Y005916D01*
X016516Y005926D01*
X016529Y005939D01*
X016539Y005953D01*
X016546Y005969D01*
X016550Y005986D01*
X016552Y006003D01*
X016552Y006703D01*
X016550Y006720D01*
X016546Y006737D01*
X016539Y006753D01*
X016529Y006767D01*
X016516Y006780D01*
X016502Y006790D01*
X016486Y006797D01*
X016469Y006801D01*
X016452Y006803D01*
X016302Y006803D01*
X016252Y006753D01*
X014352Y006753D01*
X014302Y006803D01*
X024302Y004603D02*
X024552Y004853D01*
X025052Y004853D01*
X025302Y004603D01*
X025552Y004853D01*
X026052Y004853D01*
X026302Y004603D01*
X026552Y004853D01*
X027052Y004853D01*
X027302Y004603D01*
X027552Y004853D01*
X028052Y004853D01*
X028302Y004603D01*
X028302Y004103D01*
X028052Y003853D01*
X027552Y003853D01*
X027302Y004103D01*
X027052Y003853D01*
X026552Y003853D01*
X026302Y004103D01*
X026052Y003853D01*
X025552Y003853D01*
X025302Y004103D01*
X025052Y003853D01*
X024552Y003853D01*
X024302Y004103D01*
X025302Y004103D02*
X025302Y004603D01*
X026302Y004603D02*
X026302Y004103D01*
X027302Y004103D02*
X027302Y004603D01*
X014802Y014253D02*
X014763Y014251D01*
X014724Y014245D01*
X014686Y014236D01*
X014649Y014223D01*
X014613Y014206D01*
X014580Y014186D01*
X014548Y014162D01*
X014519Y014136D01*
X014493Y014107D01*
X014469Y014075D01*
X014449Y014042D01*
X014432Y014006D01*
X014419Y013969D01*
X014410Y013931D01*
X014404Y013892D01*
X014402Y013853D01*
X014552Y013853D02*
X014554Y013883D01*
X014559Y013913D01*
X014568Y013942D01*
X014581Y013969D01*
X014596Y013995D01*
X014615Y014019D01*
X014636Y014040D01*
X014660Y014059D01*
X014686Y014074D01*
X014713Y014087D01*
X014742Y014096D01*
X014772Y014101D01*
X014802Y014103D01*
X015250Y014252D02*
X015281Y014214D01*
X015309Y014174D01*
X015333Y014132D01*
X015354Y014089D01*
X015371Y014043D01*
X015384Y013997D01*
X015394Y013949D01*
X015400Y013901D01*
X015402Y013853D01*
X015202Y013853D02*
X015200Y013814D01*
X015194Y013775D01*
X015185Y013737D01*
X015172Y013700D01*
X015155Y013664D01*
X015135Y013631D01*
X015111Y013599D01*
X015085Y013570D01*
X015056Y013544D01*
X015024Y013520D01*
X014991Y013500D01*
X014955Y013483D01*
X014918Y013470D01*
X014880Y013461D01*
X014841Y013455D01*
X014802Y013453D01*
X014802Y013603D02*
X014832Y013605D01*
X014862Y013610D01*
X014891Y013619D01*
X014918Y013632D01*
X014944Y013647D01*
X014968Y013666D01*
X014989Y013687D01*
X015008Y013711D01*
X015023Y013737D01*
X015036Y013764D01*
X015045Y013793D01*
X015050Y013823D01*
X015052Y013853D01*
X015276Y014221D02*
X015246Y014256D01*
X015215Y014289D01*
X015180Y014319D01*
X015144Y014346D01*
X015106Y014370D01*
X015066Y014392D01*
X015024Y014410D01*
X014981Y014426D01*
X014937Y014438D01*
X014893Y014446D01*
X014847Y014451D01*
X014802Y014453D01*
X014757Y014451D01*
X014711Y014446D01*
X014667Y014438D01*
X014623Y014426D01*
X014580Y014410D01*
X014538Y014392D01*
X014498Y014370D01*
X014460Y014346D01*
X014424Y014319D01*
X014389Y014289D01*
X014358Y014256D01*
X014328Y014221D01*
X014802Y013253D02*
X014848Y013255D01*
X014894Y013260D01*
X014940Y013269D01*
X014985Y013281D01*
X015028Y013297D01*
X015070Y013316D01*
X015111Y013339D01*
X015150Y013364D01*
X015186Y013392D01*
X015221Y013423D01*
X015253Y013457D01*
X015282Y013493D01*
X014802Y013253D02*
X014755Y013255D01*
X014707Y013261D01*
X014661Y013270D01*
X014615Y013283D01*
X014571Y013299D01*
X014527Y013319D01*
X014486Y013343D01*
X014447Y013369D01*
X014410Y013399D01*
X014375Y013432D01*
X014343Y013467D01*
X014314Y013504D01*
X014202Y013853D02*
X014204Y013899D01*
X014209Y013945D01*
X014218Y013991D01*
X014230Y014035D01*
X014246Y014079D01*
X014265Y014121D01*
X014287Y014162D01*
X014313Y014200D01*
X014341Y014237D01*
X014202Y013853D02*
X014204Y013806D01*
X014209Y013759D01*
X014219Y013713D01*
X014232Y013667D01*
X014248Y013623D01*
X014268Y013580D01*
X014291Y013539D01*
X014317Y013500D01*
X014346Y013463D01*
X015263Y013469D02*
X015291Y013506D01*
X015317Y013544D01*
X015339Y013585D01*
X015358Y013627D01*
X015374Y013671D01*
X015386Y013715D01*
X015395Y013761D01*
X015400Y013807D01*
X015402Y013853D01*
X011802Y014253D02*
X011763Y014251D01*
X011724Y014245D01*
X011686Y014236D01*
X011649Y014223D01*
X011613Y014206D01*
X011580Y014186D01*
X011548Y014162D01*
X011519Y014136D01*
X011493Y014107D01*
X011469Y014075D01*
X011449Y014042D01*
X011432Y014006D01*
X011419Y013969D01*
X011410Y013931D01*
X011404Y013892D01*
X011402Y013853D01*
X011552Y013853D02*
X011554Y013883D01*
X011559Y013913D01*
X011568Y013942D01*
X011581Y013969D01*
X011596Y013995D01*
X011615Y014019D01*
X011636Y014040D01*
X011660Y014059D01*
X011686Y014074D01*
X011713Y014087D01*
X011742Y014096D01*
X011772Y014101D01*
X011802Y014103D01*
X012250Y014252D02*
X012281Y014214D01*
X012309Y014174D01*
X012333Y014132D01*
X012354Y014089D01*
X012371Y014043D01*
X012384Y013997D01*
X012394Y013949D01*
X012400Y013901D01*
X012402Y013853D01*
X012202Y013853D02*
X012200Y013814D01*
X012194Y013775D01*
X012185Y013737D01*
X012172Y013700D01*
X012155Y013664D01*
X012135Y013631D01*
X012111Y013599D01*
X012085Y013570D01*
X012056Y013544D01*
X012024Y013520D01*
X011991Y013500D01*
X011955Y013483D01*
X011918Y013470D01*
X011880Y013461D01*
X011841Y013455D01*
X011802Y013453D01*
X011802Y013603D02*
X011832Y013605D01*
X011862Y013610D01*
X011891Y013619D01*
X011918Y013632D01*
X011944Y013647D01*
X011968Y013666D01*
X011989Y013687D01*
X012008Y013711D01*
X012023Y013737D01*
X012036Y013764D01*
X012045Y013793D01*
X012050Y013823D01*
X012052Y013853D01*
X012276Y014221D02*
X012246Y014256D01*
X012215Y014289D01*
X012180Y014319D01*
X012144Y014346D01*
X012106Y014370D01*
X012066Y014392D01*
X012024Y014410D01*
X011981Y014426D01*
X011937Y014438D01*
X011893Y014446D01*
X011847Y014451D01*
X011802Y014453D01*
X011757Y014451D01*
X011711Y014446D01*
X011667Y014438D01*
X011623Y014426D01*
X011580Y014410D01*
X011538Y014392D01*
X011498Y014370D01*
X011460Y014346D01*
X011424Y014319D01*
X011389Y014289D01*
X011358Y014256D01*
X011328Y014221D01*
X011802Y013253D02*
X011848Y013255D01*
X011894Y013260D01*
X011940Y013269D01*
X011985Y013281D01*
X012028Y013297D01*
X012070Y013316D01*
X012111Y013339D01*
X012150Y013364D01*
X012186Y013392D01*
X012221Y013423D01*
X012253Y013457D01*
X012282Y013493D01*
X011802Y013253D02*
X011755Y013255D01*
X011707Y013261D01*
X011661Y013270D01*
X011615Y013283D01*
X011571Y013299D01*
X011527Y013319D01*
X011486Y013343D01*
X011447Y013369D01*
X011410Y013399D01*
X011375Y013432D01*
X011343Y013467D01*
X011314Y013504D01*
X011202Y013853D02*
X011204Y013899D01*
X011209Y013945D01*
X011218Y013991D01*
X011230Y014035D01*
X011246Y014079D01*
X011265Y014121D01*
X011287Y014162D01*
X011313Y014200D01*
X011341Y014237D01*
X011202Y013853D02*
X011204Y013806D01*
X011209Y013759D01*
X011219Y013713D01*
X011232Y013667D01*
X011248Y013623D01*
X011268Y013580D01*
X011291Y013539D01*
X011317Y013500D01*
X011346Y013463D01*
X012263Y013469D02*
X012291Y013506D01*
X012317Y013544D01*
X012339Y013585D01*
X012358Y013627D01*
X012374Y013671D01*
X012386Y013715D01*
X012395Y013761D01*
X012400Y013807D01*
X012402Y013853D01*
X012302Y015903D02*
X012352Y015953D01*
X014252Y015953D01*
X014302Y015903D01*
X014452Y015903D01*
X014469Y015905D01*
X014486Y015909D01*
X014502Y015916D01*
X014516Y015926D01*
X014529Y015939D01*
X014539Y015953D01*
X014546Y015969D01*
X014550Y015986D01*
X014552Y016003D01*
X014552Y016703D01*
X014550Y016720D01*
X014546Y016737D01*
X014539Y016753D01*
X014529Y016767D01*
X014516Y016780D01*
X014502Y016790D01*
X014486Y016797D01*
X014469Y016801D01*
X014452Y016803D01*
X014302Y016803D01*
X014252Y016753D01*
X012352Y016753D01*
X012302Y016803D01*
X012152Y016803D01*
X012135Y016801D01*
X012118Y016797D01*
X012102Y016790D01*
X012088Y016780D01*
X012075Y016767D01*
X012065Y016753D01*
X012058Y016737D01*
X012054Y016720D01*
X012052Y016703D01*
X012052Y016003D01*
X012054Y015986D01*
X012058Y015969D01*
X012065Y015953D01*
X012075Y015939D01*
X012088Y015926D01*
X012102Y015916D01*
X012118Y015909D01*
X012135Y015905D01*
X012152Y015903D01*
X012302Y015903D01*
X007243Y015353D02*
X007245Y015400D01*
X007251Y015446D01*
X007261Y015492D01*
X007274Y015537D01*
X007291Y015580D01*
X007312Y015622D01*
X007336Y015662D01*
X007364Y015700D01*
X007395Y015736D01*
X007428Y015768D01*
X007464Y015798D01*
X007502Y015825D01*
X007543Y015848D01*
X007585Y015868D01*
X007629Y015885D01*
X007674Y015897D01*
X007720Y015906D01*
X007767Y015911D01*
X007814Y015912D01*
X007860Y015909D01*
X007907Y015902D01*
X007952Y015891D01*
X007997Y015877D01*
X008040Y015859D01*
X008081Y015837D01*
X008121Y015812D01*
X008158Y015784D01*
X008193Y015752D01*
X008225Y015718D01*
X008254Y015682D01*
X008280Y015643D01*
X008303Y015602D01*
X008322Y015559D01*
X008337Y015515D01*
X008349Y015469D01*
X008357Y015423D01*
X008361Y015376D01*
X008361Y015330D01*
X008357Y015283D01*
X008349Y015237D01*
X008337Y015191D01*
X008322Y015147D01*
X008303Y015104D01*
X008280Y015063D01*
X008254Y015024D01*
X008225Y014988D01*
X008193Y014954D01*
X008158Y014922D01*
X008121Y014894D01*
X008082Y014869D01*
X008040Y014847D01*
X007997Y014829D01*
X007952Y014815D01*
X007907Y014804D01*
X007860Y014797D01*
X007814Y014794D01*
X007767Y014795D01*
X007720Y014800D01*
X007674Y014809D01*
X007629Y014821D01*
X007585Y014838D01*
X007543Y014858D01*
X007502Y014881D01*
X007464Y014908D01*
X007428Y014938D01*
X007395Y014970D01*
X007364Y015006D01*
X007336Y015044D01*
X007312Y015084D01*
X007291Y015126D01*
X007274Y015169D01*
X007261Y015214D01*
X007251Y015260D01*
X007245Y015306D01*
X007243Y015353D01*
X006302Y015353D02*
X006304Y015430D01*
X006310Y015507D01*
X006320Y015584D01*
X006334Y015660D01*
X006351Y015735D01*
X006373Y015809D01*
X006398Y015882D01*
X006428Y015954D01*
X006460Y016024D01*
X006497Y016092D01*
X006536Y016158D01*
X006579Y016222D01*
X006626Y016284D01*
X006675Y016343D01*
X006728Y016400D01*
X006783Y016454D01*
X006841Y016505D01*
X006902Y016553D01*
X006965Y016598D01*
X007030Y016639D01*
X007097Y016677D01*
X007166Y016712D01*
X007237Y016742D01*
X007309Y016770D01*
X007383Y016793D01*
X007457Y016813D01*
X007533Y016829D01*
X007609Y016841D01*
X007686Y016849D01*
X007763Y016853D01*
X007841Y016853D01*
X007918Y016849D01*
X007995Y016841D01*
X008071Y016829D01*
X008147Y016813D01*
X008221Y016793D01*
X008295Y016770D01*
X008367Y016742D01*
X008438Y016712D01*
X008507Y016677D01*
X008574Y016639D01*
X008639Y016598D01*
X008702Y016553D01*
X008763Y016505D01*
X008821Y016454D01*
X008876Y016400D01*
X008929Y016343D01*
X008978Y016284D01*
X009025Y016222D01*
X009068Y016158D01*
X009107Y016092D01*
X009144Y016024D01*
X009176Y015954D01*
X009206Y015882D01*
X009231Y015809D01*
X009253Y015735D01*
X009270Y015660D01*
X009284Y015584D01*
X009294Y015507D01*
X009300Y015430D01*
X009302Y015353D01*
X009300Y015276D01*
X009294Y015199D01*
X009284Y015122D01*
X009270Y015046D01*
X009253Y014971D01*
X009231Y014897D01*
X009206Y014824D01*
X009176Y014752D01*
X009144Y014682D01*
X009107Y014614D01*
X009068Y014548D01*
X009025Y014484D01*
X008978Y014422D01*
X008929Y014363D01*
X008876Y014306D01*
X008821Y014252D01*
X008763Y014201D01*
X008702Y014153D01*
X008639Y014108D01*
X008574Y014067D01*
X008507Y014029D01*
X008438Y013994D01*
X008367Y013964D01*
X008295Y013936D01*
X008221Y013913D01*
X008147Y013893D01*
X008071Y013877D01*
X007995Y013865D01*
X007918Y013857D01*
X007841Y013853D01*
X007763Y013853D01*
X007686Y013857D01*
X007609Y013865D01*
X007533Y013877D01*
X007457Y013893D01*
X007383Y013913D01*
X007309Y013936D01*
X007237Y013964D01*
X007166Y013994D01*
X007097Y014029D01*
X007030Y014067D01*
X006965Y014108D01*
X006902Y014153D01*
X006841Y014201D01*
X006783Y014252D01*
X006728Y014306D01*
X006675Y014363D01*
X006626Y014422D01*
X006579Y014484D01*
X006536Y014548D01*
X006497Y014614D01*
X006460Y014682D01*
X006428Y014752D01*
X006398Y014824D01*
X006373Y014897D01*
X006351Y014971D01*
X006334Y015046D01*
X006320Y015122D01*
X006310Y015199D01*
X006304Y015276D01*
X006302Y015353D01*
D16*
X011302Y012273D03*
X015302Y012273D03*
X015302Y009433D03*
X011302Y009433D03*
D17*
X013382Y006353D03*
X013882Y006353D03*
X016722Y006353D03*
X017222Y006353D03*
X020382Y006353D03*
X020882Y006353D03*
X023722Y006353D03*
X024222Y006353D03*
X030882Y009353D03*
X030882Y010353D03*
X030882Y011353D03*
X030882Y012353D03*
X033722Y012353D03*
X033722Y011353D03*
X033722Y010353D03*
X033722Y009353D03*
X014722Y016353D03*
X011882Y016353D03*
D18*
X021487Y011018D02*
X021698Y011018D01*
X021592Y011018D02*
X021592Y010388D01*
X021487Y010388D02*
X021698Y010388D01*
X021917Y010493D02*
X022022Y010388D01*
X022232Y010388D01*
X022337Y010493D01*
X022562Y010388D02*
X022982Y010388D01*
X022772Y010388D02*
X022772Y011018D01*
X022562Y010808D01*
X022337Y010913D02*
X022232Y011018D01*
X022022Y011018D01*
X021917Y010913D01*
X021917Y010493D01*
D19*
X021802Y004353D03*
X020802Y004353D03*
X019802Y004353D03*
X018802Y004353D03*
X017802Y004353D03*
X016802Y004353D03*
X015802Y004353D03*
X014802Y004353D03*
X013802Y004353D03*
X012802Y004353D03*
X011802Y004353D03*
X010802Y004353D03*
X022802Y004353D03*
X023802Y004353D03*
X024802Y004353D03*
X025802Y004353D03*
X026802Y004353D03*
X027802Y004353D03*
D20*
X007802Y015353D03*
D21*
X007802Y015353D03*
D22*
X011182Y014353D02*
X011182Y013353D01*
X011802Y013053D02*
X011856Y013055D01*
X011910Y013060D01*
X011963Y013069D01*
X012016Y013082D01*
X012067Y013098D01*
X012117Y013118D01*
X012166Y013141D01*
X012214Y013167D01*
X012259Y013196D01*
X012302Y013229D01*
X012343Y013264D01*
X012382Y013302D01*
X012418Y013342D01*
X012451Y013385D01*
X012481Y013430D01*
X012508Y013477D01*
X012497Y014250D02*
X012467Y014298D01*
X012434Y014343D01*
X012398Y014386D01*
X012360Y014427D01*
X012318Y014464D01*
X012274Y014499D01*
X012228Y014530D01*
X012179Y014559D01*
X012129Y014583D01*
X012077Y014604D01*
X012023Y014622D01*
X011969Y014635D01*
X011914Y014645D01*
X011858Y014651D01*
X011802Y014653D01*
X012483Y014272D02*
X012511Y014224D01*
X012535Y014175D01*
X012555Y014123D01*
X012572Y014071D01*
X012585Y014017D01*
X012594Y013963D01*
X012600Y013908D01*
X012602Y013853D01*
X012600Y013797D01*
X012594Y013740D01*
X012584Y013685D01*
X012570Y013630D01*
X012553Y013577D01*
X012531Y013524D01*
X012506Y013474D01*
X011802Y014653D02*
X011749Y014651D01*
X011695Y014646D01*
X011643Y014637D01*
X011591Y014625D01*
X011540Y014609D01*
X011490Y014590D01*
X011441Y014567D01*
X011394Y014541D01*
X011349Y014513D01*
X011306Y014481D01*
X011266Y014447D01*
X011227Y014409D01*
X011191Y014370D01*
X011187Y013341D02*
X011223Y013301D01*
X011262Y013263D01*
X011303Y013228D01*
X011346Y013196D01*
X011391Y013166D01*
X011438Y013140D01*
X011487Y013118D01*
X011538Y013098D01*
X011589Y013082D01*
X011641Y013069D01*
X011695Y013060D01*
X011748Y013055D01*
X011802Y013053D01*
X014182Y013353D02*
X014182Y014353D01*
X014802Y013053D02*
X014856Y013055D01*
X014910Y013060D01*
X014963Y013069D01*
X015016Y013082D01*
X015067Y013098D01*
X015117Y013118D01*
X015166Y013141D01*
X015214Y013167D01*
X015259Y013196D01*
X015302Y013229D01*
X015343Y013264D01*
X015382Y013302D01*
X015418Y013342D01*
X015451Y013385D01*
X015481Y013430D01*
X015508Y013477D01*
X015497Y014250D02*
X015467Y014298D01*
X015434Y014343D01*
X015398Y014386D01*
X015360Y014427D01*
X015318Y014464D01*
X015274Y014499D01*
X015228Y014530D01*
X015179Y014559D01*
X015129Y014583D01*
X015077Y014604D01*
X015023Y014622D01*
X014969Y014635D01*
X014914Y014645D01*
X014858Y014651D01*
X014802Y014653D01*
X015483Y014272D02*
X015511Y014224D01*
X015535Y014175D01*
X015555Y014123D01*
X015572Y014071D01*
X015585Y014017D01*
X015594Y013963D01*
X015600Y013908D01*
X015602Y013853D01*
X015600Y013797D01*
X015594Y013740D01*
X015584Y013685D01*
X015570Y013630D01*
X015553Y013577D01*
X015531Y013524D01*
X015506Y013474D01*
X014802Y014653D02*
X014749Y014651D01*
X014695Y014646D01*
X014643Y014637D01*
X014591Y014625D01*
X014540Y014609D01*
X014490Y014590D01*
X014441Y014567D01*
X014394Y014541D01*
X014349Y014513D01*
X014306Y014481D01*
X014266Y014447D01*
X014227Y014409D01*
X014191Y014370D01*
X014187Y013341D02*
X014223Y013301D01*
X014262Y013263D01*
X014303Y013228D01*
X014346Y013196D01*
X014391Y013166D01*
X014438Y013140D01*
X014487Y013118D01*
X014538Y013098D01*
X014589Y013082D01*
X014641Y013069D01*
X014695Y013060D01*
X014748Y013055D01*
X014802Y013053D01*
M02*
